<?xml version="1.0" encoding="UTF-8" standalone="no"?><!-- Generator: Gravit.io --><svg xmlns="http://www.w3.org/2000/svg" xmlns:xlink="http://www.w3.org/1999/xlink" style="isolation:isolate" viewBox="0 0 744 907" width="744pt" height="907pt"><defs><clipPath id="_clipPath_5lELyuImQ4qYGHL5VMcHjhJTuuMghBuc"><rect width="744" height="907"/></clipPath></defs><g clip-path="url(#_clipPath_5lELyuImQ4qYGHL5VMcHjhJTuuMghBuc)"><g opacity="0.3"><path d=" M 717.621 884.79 C 716.977 885.71 716.067 886.16 714.891 886.16 C 713.715 886.16 712.8 885.71 712.147 884.79 C 711.503 883.87 711.181 882.64 711.181 881.1 C 711.181 879.56 711.503 878.33 712.147 877.41 C 712.8 876.49 713.715 876.03 714.891 876.03 C 716.067 876.03 716.977 876.49 717.621 877.41 C 718.274 878.33 718.601 879.56 718.601 881.1 C 718.601 882.64 718.274 883.87 717.621 884.79 Z  M 712.875 884.13 C 713.36 884.85 714.032 885.21 714.891 885.21 C 715.75 885.21 716.417 884.85 716.893 884.13 C 717.378 883.42 717.621 882.4 717.621 881.1 C 717.621 879.79 717.378 878.78 716.893 878.06 C 716.417 877.34 715.75 876.98 714.891 876.98 C 714.032 876.98 713.36 877.34 712.875 878.06 C 712.399 878.78 712.161 879.79 712.161 881.1 C 712.161 882.4 712.399 883.42 712.875 884.13 Z  M 719.723 886 L 719.723 885.11 L 723.251 881.56 C 724.259 880.55 724.763 879.69 724.763 878.97 C 724.763 878.34 724.567 877.86 724.175 877.51 C 723.792 877.16 723.33 876.98 722.789 876.98 C 721.781 876.98 721.048 877.44 720.591 878.37 L 719.765 877.88 C 720.073 877.27 720.493 876.81 721.025 876.5 C 721.557 876.19 722.145 876.03 722.789 876.03 C 723.573 876.03 724.259 876.29 724.847 876.83 C 725.444 877.35 725.743 878.06 725.743 878.97 C 725.743 879.54 725.584 880.08 725.267 880.61 C 724.949 881.13 724.501 881.68 723.923 882.26 L 721.123 885.04 L 725.953 885.04 L 725.953 886 L 719.723 886 Z " fill="rgb(255,255,255)"/></g><g opacity="0.3"><circle vector-effect="non-scaling-stroke" cx="718" cy="881" r="25.5" fill="none" stroke-width="1" stroke="rgb(255,255,255)" stroke-linejoin="miter" stroke-linecap="butt" stroke-miterlimit="4"/></g><g opacity="0.5"><mask id="_mask_IuaeNdncijAGmkawRDszEMkSSqTxnOm4" x="-200%" y="-200%" width="400%" height="400%"><rect x="-200%" y="-200%" width="400%" height="400%" style="fill:white;"/><path d=" M 672.597 868.42 C 506.633 797.68 360.875 686.76 248.455 545.66 C 136.035 404.56 60.484 237.71 28.61 60.13" fill="black" stroke="none"/></mask><path d=" M 672.597 868.42 C 506.633 797.68 360.875 686.76 248.455 545.66 C 136.035 404.56 60.484 237.71 28.61 60.13" fill="none" mask="url(#_mask_IuaeNdncijAGmkawRDszEMkSSqTxnOm4)" vector-effect="non-scaling-stroke" stroke-width="2" stroke-dasharray="1,4" stroke="rgb(255,255,255)" stroke-linejoin="miter" stroke-linecap="butt" stroke-miterlimit="4"/><path d=" M 672.597 868.42 C 506.633 797.68 360.875 686.76 248.455 545.66 C 136.035 404.56 60.484 237.71 28.61 60.13" fill="none"/></g><g opacity="0.3"><path d=" M 26.989 29.8 C 26.345 30.71 25.435 31.17 24.259 31.17 C 23.083 31.17 22.168 30.71 21.515 29.8 C 20.871 28.87 20.549 27.64 20.549 26.1 C 20.549 24.56 20.871 23.33 21.515 22.42 C 22.168 21.49 23.083 21.03 24.259 21.03 C 25.435 21.03 26.345 21.49 26.989 22.42 C 27.642 23.33 27.969 24.56 27.969 26.1 C 27.969 27.64 27.642 28.87 26.989 29.8 Z  M 22.243 29.14 C 22.728 29.86 23.4 30.22 24.259 30.22 C 25.117 30.22 25.785 29.86 26.261 29.14 C 26.746 28.42 26.989 27.41 26.989 26.1 C 26.989 24.79 26.746 23.78 26.261 23.06 C 25.785 22.34 25.117 21.98 24.259 21.98 C 23.4 21.98 22.728 22.34 22.243 23.06 C 21.767 23.78 21.529 24.79 21.529 26.1 C 21.529 27.41 21.767 28.42 22.243 29.14 Z  M 31.194 21.2 L 32.034 21.2 L 32.034 31 L 31.054 31 L 31.054 22.28 L 28.856 22.94 L 28.604 22.1 L 31.194 21.2 Z " fill="rgb(160,140,203)"/></g><g opacity="0.3"><circle vector-effect="non-scaling-stroke" cx="26" cy="26" r="25.5" fill="none" stroke-width="1" stroke="rgb(160,140,203)" stroke-linejoin="miter" stroke-linecap="butt" stroke-miterlimit="4"/></g></g></svg>