<svg width="109" height="109" viewBox="0 0 109 109" fill="none" xmlns="http://www.w3.org/2000/svg">
<rect width="109" height="109" fill="#F84056"/>
<path d="M38.1907 71.3084H42.3409L37.5522 86.6253H33.7213L30.848 77.3713L27.9748 86.6253H24.1439L19.3552 71.3084H23.5054L26.0593 80.5624L28.9326 71.3084H32.7635L35.6367 80.8815L38.1907 71.3084Z" fill="white"/>
<path d="M46.9352 80.8815C47.5737 82.7961 48.8507 83.7534 51.4047 83.7534C53.0009 83.7534 53.9587 83.1152 54.9164 82.1579L58.1089 84.0725C56.5126 86.3062 54.2779 87.2635 51.4047 87.2635C48.8507 87.2635 46.9352 86.6253 45.339 85.0298C43.7428 83.4343 42.785 81.5197 42.785 79.2859C42.785 77.0522 43.4235 75.1376 45.0198 73.5421C46.616 71.9466 48.5315 71.3084 50.7662 71.3084C53.0009 71.3084 54.9164 71.9466 56.1934 73.5421C57.4704 75.1376 58.4281 77.0522 58.4281 79.2859C58.4281 79.9241 58.4281 80.2433 58.4281 80.8815H46.9352ZM46.9352 78.0095H54.5972C54.2779 77.0522 53.9587 76.0949 53.3202 75.7758C52.6817 75.1376 51.7239 74.8185 50.7662 74.8185C49.8085 74.8185 48.8507 75.1376 48.2122 75.7758C47.5737 76.0949 47.2545 76.7331 46.9352 78.0095Z" fill="white"/>
<path d="M60.2186 86.5147V64.1776H64.0496V86.5147H60.2186Z" fill="white"/>
<path d="M67.2421 86.5147V64.1776H71.0731V86.5147H67.2421Z" fill="white"/>
<path d="M87.3547 84.6001C85.7584 86.1957 83.843 86.8339 81.6082 86.8339C79.3735 86.8339 77.458 86.1957 75.8618 84.6001C74.2656 83.0046 73.6271 81.09 73.6271 78.8563C73.6271 76.6226 74.2656 74.708 75.8618 73.1125C77.458 71.517 79.3735 70.8788 81.6082 70.8788C83.843 70.8788 85.7584 71.517 87.3547 73.1125C88.9509 74.708 89.5894 76.6226 89.5894 78.8563C89.5894 81.09 88.9509 83.0046 87.3547 84.6001ZM78.735 82.0473C79.3735 82.6855 80.6505 83.3237 81.6082 83.3237C82.566 83.3237 83.843 83.0046 84.4815 82.0473C85.12 81.4091 85.7584 80.1327 85.7584 79.1754C85.7584 78.2181 85.4392 76.9417 84.4815 75.9844C83.843 75.3462 82.566 74.708 81.6082 74.708C80.6505 74.708 79.3735 75.0271 78.735 75.9844C78.0965 76.6226 77.458 77.899 77.458 79.1754C77.458 80.4518 77.7773 81.09 78.735 82.0473Z" fill="white"/>
</svg>
