<svg width="1796" height="903" viewBox="0 0 1796 903" fill="none" xmlns="http://www.w3.org/2000/svg">
<g opacity="0.7">
<path d="M896.392 258.104C896.232 257.306 895.992 256.427 895.912 255.469C895.034 248.682 901.025 242.135 907.416 239.021" stroke="white" stroke-opacity="0.5" stroke-dasharray="2 6"/>
<path d="M907.416 239.101C909.174 238.223 911.011 237.664 912.689 237.425C936.255 234.151 931.941 256.587 917.562 265.449" stroke="white" stroke-opacity="0.5" stroke-dasharray="2 6"/>
<path d="M896.392 258.104C899.188 269.282 908.854 265.13 917.561 265.37" stroke="white" stroke-opacity="0.5" stroke-dasharray="2 6"/>
<path d="M883.85 279.822C892.717 285.171 905.659 282.057 917.561 282.376" stroke="white" stroke-dasharray="2 6"/>
<path d="M915.405 225.288C926.748 224.889 937.133 229.44 942.086 241.656C950.873 263.294 932.819 272.795 917.721 282.137" stroke="white" stroke-dasharray="2 6"/>
<path d="M883.85 279.821C879.456 277.186 876.021 272.396 874.344 264.092C870.429 244.93 889.282 231.117 905.339 226.805C908.694 225.927 912.049 225.368 915.324 225.288" stroke="white" stroke-dasharray="2 6"/>
<path d="M1456.06 719.671C1454.15 686.137 1459.1 651.565 1455.98 618.27C1452.07 575.714 1418.12 575.794 1385.13 578.908C1351.17 582.102 1316.98 587.77 1283.03 590.086C1272.89 590.804 1248.52 586.812 1239.82 594.397C1221.04 610.765 1244.45 609.488 1252.12 616.993C1264.18 628.73 1258.11 655.717 1257.79 670.089C1257.39 688.373 1259.47 706.657 1260.19 724.941C1262.02 771.01 1385.68 779.553 1428.02 785.142C1429.94 785.382 1431.86 785.542 1433.86 785.781C1448.79 787.218 1454.31 797.119 1461.02 774.683C1464.85 761.349 1456.86 733.883 1456.06 719.671Z" stroke="white" stroke-dasharray="2 6"/>
<path d="M917.561 298.424C940.568 284.292 966.61 275.03 954.708 240.299C949.275 224.57 936.254 216.506 921.476 214.749" stroke="white" stroke-dasharray="2 6"/>
<path d="M872.985 298.584C862.281 296.029 854.292 288.604 852.215 269.681C849.1 240.618 872.506 224.41 897.11 216.985C905.019 214.589 913.487 213.711 921.395 214.749" stroke="white" stroke-dasharray="2 6"/>
<path d="M917.641 298.025C902.942 297.546 886.007 301.698 873.065 298.664" stroke="white" stroke-dasharray="2 6"/>
<path d="M1494.89 727.896C1493.77 688.853 1495.61 649.091 1492.25 610.766C1488.02 562.142 1440.89 539.706 1398.87 545.854C1352.29 552.64 1303.32 558.07 1256.35 560.465C1237.26 561.423 1147.15 562.381 1171.75 606.614C1180.38 622.184 1206.42 618.591 1217.21 635.917C1229.51 655.718 1220.08 682.864 1220.72 704.741C1221.36 726.219 1226.48 751.21 1238.22 769.734C1251.96 791.371 1260.91 794.086 1284.95 795.842C1334 799.515 1382.97 813.248 1431.62 820.753C1431.94 820.833 1432.26 820.833 1432.5 820.833C1435.13 820.913 1437.85 821.232 1440.49 821.711" stroke="white" stroke-dasharray="2 6"/>
<path d="M1494.89 727.896C1495.13 735.64 1495.45 743.465 1495.93 751.13C1497.12 768.935 1505.27 797.199 1494.81 812.769C1479.55 835.604 1460.38 825.144 1440.57 821.791" stroke="white" stroke-dasharray="2 6"/>
<path d="M862.361 317.028C879.376 320.142 900.386 315.352 917.561 315.91" stroke="white" stroke-dasharray="2 6"/>
<path d="M928.027 203.331C944.403 205.487 959.102 213.951 967.09 232.075C986.182 275.909 948.397 297.147 918.121 315.83" stroke="white" stroke-dasharray="2 6"/>
<path d="M1531.95 663.623C1530.68 650.049 1529.32 636.316 1526.68 622.583C1518.93 581.384 1501.6 558.869 1470.76 532.52C1437.05 503.617 1410.53 512.799 1370.43 518.228C1350.62 520.943 1331.28 516.791 1311.23 518.867C1294.46 520.544 1277.76 523.259 1260.91 523.977C1243.49 524.776 1226 522.38 1208.74 525.175C1186.45 528.848 1176.63 539.626 1158.33 550.645C1143.4 559.667 1127.18 561.743 1111.52 568.769C1103.69 572.282 1098.42 577.552 1090.99 581.624C1086.84 583.859 1079.81 575.875 1076.53 580.905C1070.38 590.327 1110.4 623.462 1116.71 631.047C1135.97 654.121 1163.93 666.657 1176.63 695.161C1187.89 720.391 1188.45 750.891 1204.51 774.365C1212.66 786.182 1224.8 794.405 1233.27 806.142C1242.21 818.598 1244.53 827.221 1259.31 834.008C1285.83 846.224 1318.1 834.407 1346.06 839.916C1370.99 844.866 1396.63 851.413 1422.19 853.569" stroke="white" stroke-dasharray="2 6"/>
<path d="M774.887 468.41C795.337 458.829 812.273 446.453 822.099 421.223C826.892 408.847 826.412 391.521 828.33 375.872" stroke="white" stroke-dasharray="2 6"/>
<path d="M774.887 468.41C765.78 472.722 756.034 476.394 745.809 480.466" stroke="white" stroke-dasharray="2 6"/>
<path d="M848.7 340.742C834.481 346.49 830.247 360.383 828.33 375.952" stroke="white" stroke-dasharray="2 6"/>
<path d="M940.568 181.614C964.613 189.439 986.821 207.563 994.809 231.357C1007.03 268.005 989.697 306.569 959.9 329.244C947.039 339.065 927.627 344.734 911.809 346.171C894.315 347.768 881.693 337.867 865.397 337.867C858.686 337.867 853.174 338.905 848.701 340.662" stroke="white" stroke-dasharray="2 6"/>
<path d="M1404.3 884.628C1392.08 882.153 1380.09 879.199 1367.55 879.199C1317.06 879.039 1267.54 881.514 1225.28 847.661C1182.06 813.009 1179.5 764.385 1157.69 717.756C1148.03 696.997 1131.41 676.877 1113.28 662.904C1104.41 656.118 1091.71 645.658 1080.53 643.343C1065.67 640.229 1055.76 650.289 1041.78 639.909C1023.65 626.496 1029.72 593.121 1027.48 573.241C1024.69 548.888 1034.75 528.129 1053.61 511.522C1070.7 496.511 1096.9 485.254 1119.43 485.174C1148.75 485.014 1171.59 499.865 1199.23 500.104C1250.76 500.504 1298.61 478.946 1349.5 482.699C1398.63 486.291 1450.95 479.026 1495.45 506.412C1529.48 527.411 1551.37 570.845 1561.27 612.922" stroke="white"/>
<path d="M951.431 162.85C998.563 179.697 1034.75 221.615 1023.49 277.744C1016.7 311.438 992.252 338.745 964.133 355.192C949.834 363.576 935.774 381.54 918.439 383.856C903.501 385.932 890 369.644 876.42 379.065C863.399 388.088 871.707 408.527 867.313 421.861C862.839 435.514 850.697 453.319 841.43 464.577C813.95 497.952 784.473 500.826 748.045 514.958" stroke="white"/>
<path d="M1255.71 894.928C1251.32 892.613 1246.92 889.818 1242.29 886.385C1232.71 879.359 1225.2 870.177 1214.25 864.747C1204.67 859.957 1193.96 860.117 1184.93 854.128C1165.12 840.954 1154.82 809.895 1144.59 789.535C1139.4 779.236 1132.53 767.818 1131.09 756.321C1129.49 743.705 1136.2 737.478 1129.89 724.703C1120.07 704.822 1085.72 693.644 1065.91 690.61C1045.38 687.496 1009.83 697.556 996.886 673.923C991.134 663.383 999.762 651.886 998.244 641.027C996.167 625.937 987.859 623.382 980.749 612.204C966.53 589.848 973.4 577.792 981.788 554.557C989.776 532.201 988.258 513.917 971.722 496.192C962.216 485.972 934.656 467.129 951.432 449.164C959.34 440.701 971.083 446.53 980.829 445.971C993.93 445.172 1006.23 441.819 1019.01 438.705C1027.72 436.549 1038.99 438.945 1042.42 428.565C1045.7 418.824 1034.19 410.361 1026.84 408.445C1018.61 406.209 1005.83 413.475 997.285 413.794C984.743 414.193 973.24 409.722 961.018 408.205C951.032 407.007 936.493 403.654 926.907 406.448C914.046 410.201 920.676 413.235 914.046 418.185C910.531 417.387 907.016 416.988 903.421 416.988C900.226 421.619 897.669 426.489 895.592 431.679C890.24 440.302 885.766 453.396 881.852 462.738C874.663 480.064 873.065 499.066 861.561 514.396C842.389 540.026 836.158 521.901 811.474 523.179C794.139 524.057 777.124 535.395 760.907 544.417" stroke="white" stroke-dasharray="2 6"/>
<path d="M760.827 544.099C755.634 546.974 750.602 549.608 745.649 551.605" stroke="white" stroke-dasharray="2 6"/>
<path d="M770.254 560.386C730 576 712 616 657.5 608.5" stroke="white"/>
<path d="M847.662 694.44C875.222 687.015 902.862 689.33 930.582 677.433C954.227 667.293 978.273 648.69 965.092 619.867C958.461 605.415 947.038 601.183 948.875 582.66C950.313 567.889 954.547 561.661 952.15 545.373C948.636 521.5 954.787 482.457 922.114 480.141C885.447 477.506 901.024 513.356 895.113 535.552C884.408 575.713 856.049 558.228 827.211 555.593C806.441 553.677 788.467 555.513 770.253 560.463" stroke="white"/>
<path d="M1044.9 142.009C1040.34 148.317 1036.43 153.986 1034.91 157.659C1025.49 180.813 1025.57 195.983 1039.39 217.621C1051.29 236.224 1060.55 246.444 1050.65 268.082C1041.22 288.681 1041.06 299.699 1052.73 322.614C1060.79 338.583 1076.21 359.342 1090.75 369.482C1109.76 382.736 1132.93 388.245 1152.74 402.617C1169.52 414.833 1186.85 425.692 1206.34 433.516C1214.25 436.71 1223.04 440.622 1231.67 441.58C1249.56 443.577 1246.21 438.067 1260.91 435.113C1279.12 431.52 1302.05 433.357 1321.3 430.961C1346.62 427.768 1363.88 433.197 1387.28 439.904C1412.37 447.01 1428.82 435.672 1453.67 442.06C1480.19 448.846 1499.2 464.256 1527.24 463.697C1553.04 463.138 1562.71 468.967 1570.7 494.596C1577.25 515.515 1583.16 538.749 1592.27 559.429" stroke="white"/>
<path d="M991.136 894.928C1006.87 824.347 1041.62 700.031 1092.67 743.386C1122.71 768.856 1124.3 821.472 1140.12 855.565C1147.63 871.694 1160.65 884.229 1175.91 895.008" stroke="white" stroke-dasharray="2 6"/>
<path d="M1025.41 894.928C1031.4 872.652 1039.07 851.972 1052.17 829.377C1059.52 816.682 1072.06 734.284 1104.01 772.449C1113.52 783.787 1106.73 804.945 1108.65 818.438C1110.88 834.008 1114.64 857.721 1120.39 872.412C1123.98 881.514 1128.86 888.86 1134.53 894.928" stroke="white" stroke-dasharray="2 6"/>
<path d="M1148.91 142.012C1144.03 152.791 1136.69 161.893 1129.02 171.394C1113.52 190.557 1081.09 221.216 1082.84 247.165C1084.68 274.552 1121.35 277.107 1142.68 283.494C1182.7 295.391 1210.66 298.904 1242.13 328.286C1263.22 347.927 1291.18 382.899 1322.34 380.823C1358.6 378.347 1381.05 369.325 1415.56 387.29C1434.49 397.111 1446.96 392.799 1467.01 396.951C1484.82 400.624 1502.56 406.692 1519.49 412.999C1535.15 418.828 1545.93 420.984 1560.07 422.022" stroke="white"/>
<path fill-rule="evenodd" clip-rule="evenodd" d="M754.329 732.146C754.524 731.951 754.841 731.951 755.036 732.146L758.218 735.328C758.413 735.524 758.413 735.84 758.218 736.036C758.022 736.231 757.706 736.231 757.511 736.036L755.182 733.707L755.182 778.5L754.182 778.5L754.182 733.707L751.854 736.036C751.659 736.231 751.342 736.231 751.147 736.036C750.951 735.84 750.951 735.524 751.147 735.328L754.329 732.146Z" fill="white"/>
<g opacity="0.7">
<path d="M773.282 771.14L773.282 770.3L781.682 770.3L781.682 771.02L774.842 775.7L781.682 775.7L781.682 776.54L773.282 776.54L773.282 775.82L780.122 771.14L773.282 771.14Z" fill="white"/>
<path d="M780.566 761.436C781.406 762.276 781.826 763.304 781.826 764.52C781.826 765.736 781.406 766.764 780.566 767.604C779.718 768.444 778.69 768.864 777.482 768.864C776.274 768.864 775.25 768.444 774.41 767.604C773.562 766.764 773.138 765.736 773.138 764.52C773.138 763.304 773.562 762.276 774.41 761.436C775.25 760.596 776.274 760.176 777.482 760.176C778.69 760.176 779.718 760.596 780.566 761.436ZM779.99 767.016C780.67 766.344 781.01 765.512 781.01 764.52C781.01 763.528 780.67 762.696 779.99 762.024C779.302 761.352 778.466 761.016 777.482 761.016C776.498 761.016 775.666 761.352 774.986 762.024C774.298 762.696 773.954 763.528 773.954 764.52C773.954 765.512 774.298 766.344 774.986 767.016C775.666 767.688 776.498 768.024 777.482 768.024C778.466 768.024 779.302 767.688 779.99 767.016Z" fill="white"/>
<path d="M781.682 753.579L778.322 755.547L778.322 757.899L781.682 757.899L781.682 758.739L773.282 758.739L773.282 755.379C773.282 754.683 773.53 754.091 774.026 753.603C774.514 753.107 775.106 752.859 775.802 752.859C776.37 752.859 776.878 753.031 777.326 753.375C777.766 753.711 778.062 754.143 778.214 754.671L781.682 752.619L781.682 753.579ZM774.074 757.899L777.53 757.899L777.53 755.379C777.53 754.915 777.362 754.519 777.026 754.191C776.682 753.863 776.274 753.699 775.802 753.699C775.322 753.699 774.914 753.863 774.578 754.191C774.242 754.519 774.074 754.915 774.074 755.379L774.074 757.899Z" fill="white"/>
<path d="M773.282 746.311L774.074 746.311L774.074 748.891L781.682 748.891L781.682 749.731L774.074 749.731L774.074 752.311L773.282 752.311L773.282 746.311Z" fill="white"/>
<path d="M773.282 739.71L773.282 738.87L781.682 738.87L781.682 739.71L777.758 739.71L777.758 744.27L781.682 744.27L781.682 745.11L773.282 745.11L773.282 744.27L776.966 744.27L776.966 739.71L773.282 739.71Z" fill="white"/>
</g>
<path d="M1109.68 894.928C1109.36 893.73 1109.04 892.453 1108.73 891.096C1104.73 872.492 1117.59 848.938 1098.26 836.882C1070.22 819.317 1057.6 859.797 1050.97 894.928" stroke="white" stroke-dasharray="2 6"/>
<path d="M1200.11 142.012C1200.99 148 1202.51 154.148 1204.91 160.615C1213.85 184.249 1235.18 205.966 1221.68 230.957C1217.53 238.702 1206.66 239.181 1211.06 250.519C1216.49 264.491 1234.62 255.229 1245.25 257.864C1267.46 263.373 1297.33 291.079 1313.39 307.367C1321.62 315.75 1328.49 328.765 1338.95 334.514C1347.02 338.905 1357.41 336.35 1368.51 340.821C1392.95 350.642 1417.4 365.014 1443.6 369.405C1476.19 374.914 1508.71 381.86 1541.06 389.046" stroke="white" stroke-dasharray="2 6"/>
<path d="M1293.74 142.012C1304.28 154.148 1313.95 166.524 1317.22 180.337C1323.53 207.164 1303.8 211.875 1296.05 232.474C1283.99 264.571 1317.86 268.563 1335.28 284.293C1371.15 316.629 1406.77 338.266 1456.46 344.175C1478.59 346.81 1500.16 350.722 1521.49 355.113" stroke="white" stroke-dasharray="2 6"/>
<path d="M1412.53 166.524C1372.02 179.379 1320.9 202.693 1337.43 254.112C1349.98 293.155 1419.8 305.212 1454.47 314.074C1470.84 318.306 1487.3 321.579 1503.83 324.534" stroke="white" stroke-dasharray="2 6"/>
<path d="M1433.38 202.533C1433.06 202.613 1432.82 202.773 1432.5 202.853C1415.24 208.442 1395.51 208.122 1385.21 226.965C1365.39 263.294 1424.03 282.695 1486.26 294.113" stroke="white" stroke-dasharray="2 6"/>
<path d="M1453.11 236.706C1442.08 238.702 1429.3 241.257 1427.94 244.211C1424.35 251.956 1445.6 255.868 1465.49 258.104" stroke="white" stroke-dasharray="2 6"/>
<path d="M1424.99 745.859C1434.97 738.354 1433.94 713.044 1423.39 694.76C1407.09 666.415 1374.66 666.016 1372.26 644.458C1371.07 633.6 1378.97 629.767 1375.46 621.304C1369.95 607.97 1344.14 603.18 1325.13 608.529C1306.6 613.799 1296.37 628.091 1293.98 631.684C1293.98 631.684 1289.26 638.71 1286.79 646.854C1278.8 673.202 1292.22 718.473 1322.74 733.883C1342.31 743.783 1348.86 731.168 1390.64 741.068C1410.13 745.699 1418.36 750.729 1424.99 745.859Z" stroke="white" stroke-dasharray="2 6"/>
<path d="M1423.39 664.42C1432.74 663.701 1438.01 649.968 1438.57 648.451C1443.44 635.277 1438.97 618.59 1427.38 609.328C1417.72 601.663 1401.34 597.671 1394.63 604.538C1387.04 612.362 1395.83 630.566 1400.22 639.669C1404.3 648.132 1412.61 665.218 1423.39 664.42Z" stroke="white" stroke-dasharray="2 6"/>
<path d="M1370.67 713.123C1375.78 710.329 1380.25 703.941 1379.45 697.953C1378.42 690.528 1369.95 690.288 1358.68 677.992C1354.77 673.681 1349.66 668.172 1346.7 659.629C1342.71 648.211 1346.46 642.702 1341.91 638.071C1336.72 632.801 1324.89 632.961 1317.94 638.071C1305.96 646.774 1308.2 669.609 1315.55 683.581C1321.7 695.318 1331.36 700.828 1340.31 705.938C1350.06 711.527 1361.48 718.074 1370.67 713.123Z" stroke="white" stroke-dasharray="2 6"/>
<path d="M951.672 874.488C955.426 868.021 955.746 861.953 955.986 856.843C957.663 828.339 958.542 814.047 962.376 803.348C965.092 795.763 971.643 787.06 984.744 769.814C998.884 751.211 1005.83 745.701 1003.92 738.675C1001.76 730.851 990.336 727.577 978.353 724.303C953.909 717.676 933.538 719.114 928.026 719.513C911.889 720.79 891.199 723.106 866.834 727.737" stroke="white" stroke-dasharray="2 6"/>
<path d="M1089.47 464.019C1106.89 465.216 1117.59 472.322 1139 468.809C1144.75 467.851 1149.95 466.334 1151.78 462.422C1155.38 454.597 1143.64 442.381 1141.4 440.066C1129.74 428.01 1122.79 431.044 1106.25 419.307C1092.11 409.246 1082.12 396.232 1081.48 395.354C1072.54 383.537 1070.3 375.473 1061.51 372.998C1056.32 371.481 1048.49 371.88 1045.54 376.191C1043.3 379.385 1044.26 384.256 1056.72 410.524C1064.87 427.61 1067.03 430.964 1065.51 436.074C1063.67 442.381 1058.8 442.621 1049.53 453.639C1044.26 459.867 1037.07 468.41 1039.15 472.003C1042.26 477.352 1061.11 461.943 1089.47 464.019Z" stroke="white" stroke-dasharray="2 6"/>
<path d="M1103.85 309.124C1100.1 309.603 1095.14 310.241 1093.47 313.116C1088.11 322.457 1118.07 352.398 1146.99 370.603C1150.27 372.679 1166.48 382.659 1189.33 390.563C1200.19 394.316 1207.22 395.753 1217.29 397.749C1233.19 400.943 1241.25 402.54 1244.45 399.346C1251.08 392.799 1243.81 372.679 1233.27 360.223C1228.47 354.554 1223.68 351.44 1214.09 345.053C1210.66 342.737 1204.83 339.065 1184.54 329.084C1153.78 313.914 1148.67 313.275 1144.59 313.116C1135.97 312.796 1133.41 314.952 1124.62 313.116C1116.23 311.359 1111.84 308.086 1103.85 309.124Z" stroke="white" stroke-dasharray="2 6"/>
<path d="M1137.4 213.312C1133.89 220.099 1134.85 229.999 1139.8 236.467C1145.71 244.132 1155.46 244.69 1163.77 245.249C1172.07 245.808 1181.82 246.367 1189.33 239.66C1197.56 232.315 1200.59 218.422 1195.72 210.118C1186.29 194.07 1146.35 195.986 1137.4 213.312Z" stroke="white" stroke-opacity="0.5" stroke-dasharray="2 6"/>
<path d="M789.666 593.998C809.317 597.99 838.954 614.358 860.923 599.747C865.556 596.633 870.429 591.842 882.491 584.577C897.669 575.475 906.537 570.125 913.646 573.399C923.552 577.87 923.872 595.914 924.031 603.739C924.191 612.282 924.511 627.772 914.445 637.273C907.575 643.82 902.542 641.185 878.497 646.854C863.159 650.527 852.774 652.922 840.153 658.831C836.238 660.667 832.963 662.424 830.007 664.02" stroke="white" stroke-dasharray="2 6"/>
<path d="M789.666 593.998C782.556 592.561 776.724 592.721 773.05 596.553C761.546 608.45 781.997 644.698 795.417 660.427C799.412 665.138 803.406 668.731 808.998 670.009C816.187 671.685 821.54 668.571 830.007 664.02" stroke="white" stroke-dasharray="2 6"/>
<path d="M932.1 550.247C939.29 547.533 943.124 533.72 936.893 525.496C930.662 517.272 916.523 517.192 912.129 523.101C908.934 527.412 911.41 533.959 912.129 535.876C915.244 544.259 924.911 552.962 932.1 550.247Z" stroke="white" stroke-dasharray="2 6"/>
<path d="M514 134.013V162.013" stroke="white"/>
<path d="M500 148.013L528 148.013" stroke="white"/>
<path d="M14.0005 847.013V875.013" stroke="white"/>
<path d="M0.000488281 861.013L28.0005 861.013" stroke="white"/>
<path d="M1792 0V8" stroke="white"/>
<path d="M1788 4L1796 4" stroke="white"/>
<path d="M373 650V658" stroke="white"/>
<path d="M369 654L377 654" stroke="white"/>
<g opacity="0.3">
<path d="M751.001 142.009V154.009" stroke="white"/>
<path d="M745.001 148.009L757.001 148.009" stroke="white"/>
<path d="M816.001 142.009V154.009" stroke="white"/>
<path d="M810.001 148.009L822.001 148.009" stroke="white"/>
<path d="M881.001 142.009V154.009" stroke="white"/>
<path d="M875.001 148.009L887.001 148.009" stroke="white"/>
<path d="M816.001 207.009V219.009" stroke="white"/>
<path d="M810.001 213.009L822.001 213.009" stroke="white"/>
<path d="M881.001 207.009V219.009" stroke="white"/>
<path d="M875.001 213.009L887.001 213.009" stroke="white"/>
<path d="M751.001 272.009V284.009" stroke="white"/>
<path d="M745.001 278.009L757.001 278.009" stroke="white"/>
<path d="M881.001 272.009V284.009" stroke="white"/>
<path d="M875.001 278.009L887.001 278.009" stroke="white"/>
<path d="M816.001 337.009V349.009" stroke="white"/>
<path d="M810.001 343.009L822.001 343.009" stroke="white"/>
<path d="M881.001 337.009V349.009" stroke="white"/>
<path d="M875.001 343.009L887.001 343.009" stroke="white"/>
</g>
<g opacity="0.3">
<path d="M1525 305.009V317.009" stroke="white"/>
<path d="M1519 311.009L1531 311.009" stroke="white"/>
<path d="M1590 305.009V317.009" stroke="white"/>
<path d="M1584 311.009L1596 311.009" stroke="white"/>
<path d="M1655 305.009V317.009" stroke="white"/>
<path d="M1649 311.009L1661 311.009" stroke="white"/>
<path d="M1590 142V154" stroke="white"/>
<path d="M1584 148L1596 148" stroke="white"/>
<path d="M1655 142V154" stroke="white"/>
<path d="M1649 148L1661 148" stroke="white"/>
<path d="M1590 370.009V382.009" stroke="white"/>
<path d="M1584 376.009L1596 376.009" stroke="white"/>
<path d="M1655 370.009V382.009" stroke="white"/>
<path d="M1649 376.009L1661 376.009" stroke="white"/>
<path d="M1141 138.009V150.009" stroke="white"/>
<path d="M1135 144.009L1147 144.009" stroke="white"/>
<path d="M1206 138.009V150.009" stroke="white"/>
<path d="M1200 144.009L1212 144.009" stroke="white"/>
<path d="M1206 203.009V215.009" stroke="white"/>
<path d="M1200 209.009L1212 209.009" stroke="white"/>
<path d="M1271 203.009V215.009" stroke="white"/>
<path d="M1265 209.009L1277 209.009" stroke="white"/>
<path d="M1525 435.009V447.009" stroke="white"/>
<path d="M1519 441.009L1531 441.009" stroke="white"/>
<path d="M1655 435.009V447.009" stroke="white"/>
<path d="M1649 441.009L1661 441.009" stroke="white"/>
<path d="M1590 500.009V512.009" stroke="white"/>
<path d="M1584 506.009L1596 506.009" stroke="white"/>
<path d="M1655 500.009V512.009" stroke="white"/>
<path d="M1649 506.009L1661 506.009" stroke="white"/>
</g>
<g opacity="0.3">
<path d="M1011 142.009V154.009" stroke="white"/>
<path d="M1005 148.009L1017 148.009" stroke="white"/>
<path d="M1076 142.009V154.009" stroke="white"/>
<path d="M1070 148.009L1082 148.009" stroke="white"/>
<path d="M946.001 207.009V219.009" stroke="white"/>
<path d="M940.001 213.009L952.001 213.009" stroke="white"/>
<path d="M1076 207.009V219.009" stroke="white"/>
<path d="M1070 213.009L1082 213.009" stroke="white"/>
<path d="M946.001 272.009V284.009" stroke="white"/>
<path d="M940.001 278.009L952.001 278.009" stroke="white"/>
<path d="M1011 272.009V284.009" stroke="white"/>
<path d="M1005 278.009L1017 278.009" stroke="white"/>
<path d="M1076 272.009V284.009" stroke="white"/>
<path d="M1070 278.009L1082 278.009" stroke="white"/>
<path d="M946.001 337.009V349.009" stroke="white"/>
<path d="M940.001 343.009L952.001 343.009" stroke="white"/>
<path d="M1011 337.009V349.009" stroke="white"/>
<path d="M1005 343.009L1017 343.009" stroke="white"/>
<path d="M1076 337.009V349.009" stroke="white"/>
<path d="M1070 343.009L1082 343.009" stroke="white"/>
</g>
<g opacity="0.3">
<path d="M751.001 402.009V414.009" stroke="white"/>
<path d="M745.001 408.009L757.001 408.009" stroke="white"/>
<path d="M816.001 402.009V414.009" stroke="white"/>
<path d="M810.001 408.009L822.001 408.009" stroke="white"/>
<path d="M751.001 467.009V479.009" stroke="white"/>
<path d="M745.001 473.009L757.001 473.009" stroke="white"/>
<path d="M816.001 467.009V479.009" stroke="white"/>
<path d="M810.001 473.009L822.001 473.009" stroke="white"/>
<path d="M881.001 467.009V479.009" stroke="white"/>
<path d="M875.001 473.009L887.001 473.009" stroke="white"/>
<path d="M751.001 532.009V544.009" stroke="white"/>
<path d="M745.001 538.009L757.001 538.009" stroke="white"/>
<path d="M881.001 532.009V544.009" stroke="white"/>
<path d="M875.001 538.009L887.001 538.009" stroke="white"/>
<path d="M751.001 597.009V609.009" stroke="white"/>
<path d="M745.001 603.009L757.001 603.009" stroke="white"/>
<path d="M816.001 597.009V609.009" stroke="white"/>
<path d="M810.001 603.009L822.001 603.009" stroke="white"/>
<path d="M881.001 597.009V609.009" stroke="white"/>
<path d="M875.001 603.009L887.001 603.009" stroke="white"/>
</g>
<g opacity="0.3">
<path d="M946.001 402.009V414.009" stroke="white"/>
<path d="M940.001 408.009L952.001 408.009" stroke="white"/>
<path d="M1011 402.009V414.009" stroke="white"/>
<path d="M1005 408.009L1017 408.009" stroke="white"/>
<path d="M1076 402.009V414.009" stroke="white"/>
<path d="M1070 408.009L1082 408.009" stroke="white"/>
<path d="M946.001 467.009V479.009" stroke="white"/>
<path d="M940.001 473.009L952.001 473.009" stroke="white"/>
<path d="M1011 467.009V479.009" stroke="white"/>
<path d="M1005 473.009L1017 473.009" stroke="white"/>
<path d="M1076 467.009V479.009" stroke="white"/>
<path d="M1070 473.009L1082 473.009" stroke="white"/>
<path d="M946.001 532.009V544.009" stroke="white"/>
<path d="M940.001 538.009L952.001 538.009" stroke="white"/>
<path d="M1011 532.009V544.009" stroke="white"/>
<path d="M1005 538.009L1017 538.009" stroke="white"/>
<path d="M1076 532.009V544.009" stroke="white"/>
<path d="M1070 538.009L1082 538.009" stroke="white"/>
<path d="M946.001 597.009V609.009" stroke="white"/>
<path d="M940.001 603.009L952.001 603.009" stroke="white"/>
<path d="M1011 597.009V609.009" stroke="white"/>
<path d="M1005 603.009L1017 603.009" stroke="white"/>
<path d="M1076 597.009V609.009" stroke="white"/>
<path d="M1070 603.009L1082 603.009" stroke="white"/>
</g>
<g opacity="0.3">
<path d="M1194 896.008L1206 896.008" stroke="white"/>
<path d="M1200 902.008L1200 890.008" stroke="white"/>
<path d="M1194 831.008L1206 831.008" stroke="white"/>
<path d="M1200 837.008L1200 825.008" stroke="white"/>
<path d="M1194 766.008L1206 766.008" stroke="white"/>
<path d="M1200 772.008L1200 760.008" stroke="white"/>
<path d="M1259 831.008L1271 831.008" stroke="white"/>
<path d="M1265 837.008L1265 825.008" stroke="white"/>
<path d="M1259 766.008L1271 766.008" stroke="white"/>
<path d="M1265 772.008L1265 760.008" stroke="white"/>
<path d="M1324 896.008L1336 896.008" stroke="white"/>
<path d="M1330 902.008L1330 890.008" stroke="white"/>
<path d="M1324 766.008L1336 766.008" stroke="white"/>
<path d="M1330 772.008L1330 760.008" stroke="white"/>
<path d="M1389 831.008L1401 831.008" stroke="white"/>
<path d="M1395 837.008L1395 825.008" stroke="white"/>
<path d="M1389 766.008L1401 766.008" stroke="white"/>
<path d="M1395 772.008L1395 760.008" stroke="white"/>
</g>
<g opacity="0.3">
<path d="M1194 636.008L1206 636.008" stroke="white"/>
<path d="M1200 642.008L1200 630.008" stroke="white"/>
<path d="M1194 571.008L1206 571.008" stroke="white"/>
<path d="M1200 577.008L1200 565.008" stroke="white"/>
<path d="M1259 701.008L1271 701.008" stroke="white"/>
<path d="M1265 707.008L1265 695.008" stroke="white"/>
<path d="M1259 571.008L1271 571.008" stroke="white"/>
<path d="M1265 577.008L1265 565.008" stroke="white"/>
<path d="M1324 701.008L1336 701.008" stroke="white"/>
<path d="M1330 707.008L1330 695.008" stroke="white"/>
<path d="M1324 636.008L1336 636.008" stroke="white"/>
<path d="M1330 642.008L1330 630.008" stroke="white"/>
<path d="M1324 571.008L1336 571.008" stroke="white"/>
<path d="M1330 577.008L1330 565.008" stroke="white"/>
<path d="M1389 701.008L1401 701.008" stroke="white"/>
<path d="M1395 707.008L1395 695.008" stroke="white"/>
<path d="M1389 636.008L1401 636.008" stroke="white"/>
<path d="M1395 642.008L1395 630.008" stroke="white"/>
<path d="M1389 571.008L1401 571.008" stroke="white"/>
<path d="M1395 577.008L1395 565.008" stroke="white"/>
</g>
<g opacity="0.3">
<path d="M1454 896.008L1466 896.008" stroke="white"/>
<path d="M1460 902.008L1460 890.008" stroke="white"/>
<path d="M1454 831.008L1466 831.008" stroke="white"/>
<path d="M1460 837.008L1460 825.008" stroke="white"/>
<path d="M1519 896.008L1531 896.008" stroke="white"/>
<path d="M1525 902.008L1525 890.008" stroke="white"/>
<path d="M1519 831.008L1531 831.008" stroke="white"/>
<path d="M1525 837.008L1525 825.008" stroke="white"/>
<path d="M1519 766.008L1531 766.008" stroke="white"/>
<path d="M1525 772.008L1525 760.008" stroke="white"/>
<path d="M1584 896.008L1596 896.008" stroke="white"/>
<path d="M1590 902.008L1590 890.008" stroke="white"/>
<path d="M1584 766.008L1596 766.008" stroke="white"/>
<path d="M1590 772.008L1590 760.008" stroke="white"/>
<path d="M1649 896.008L1661 896.008" stroke="white"/>
<path d="M1655 902.008L1655 890.008" stroke="white"/>
<path d="M1649 831.008L1661 831.008" stroke="white"/>
<path d="M1655 837.008L1655 825.008" stroke="white"/>
<path d="M1649 766.008L1661 766.008" stroke="white"/>
<path d="M1655 772.008L1655 760.008" stroke="white"/>
</g>
<g opacity="0.3">
<path d="M1454 701.008L1466 701.008" stroke="white"/>
<path d="M1460 707.008L1460 695.008" stroke="white"/>
<path d="M1454 636.008L1466 636.008" stroke="white"/>
<path d="M1460 642.008L1460 630.008" stroke="white"/>
<path d="M1454 571.008L1466 571.008" stroke="white"/>
<path d="M1460 577.008L1460 565.008" stroke="white"/>
<path d="M1519 701.008L1531 701.008" stroke="white"/>
<path d="M1525 707.008L1525 695.008" stroke="white"/>
<path d="M1519 636.008L1531 636.008" stroke="white"/>
<path d="M1525 642.008L1525 630.008" stroke="white"/>
<path d="M1519 571.008L1531 571.008" stroke="white"/>
<path d="M1525 577.008L1525 565.008" stroke="white"/>
<path d="M1584 701.008L1596 701.008" stroke="white"/>
<path d="M1590 707.008L1590 695.008" stroke="white"/>
<path d="M1584 636.008L1596 636.008" stroke="white"/>
<path d="M1590 642.008L1590 630.008" stroke="white"/>
<path d="M1584 571.008L1596 571.008" stroke="white"/>
<path d="M1590 577.008L1590 565.008" stroke="white"/>
<path d="M1649 701.008L1661 701.008" stroke="white"/>
<path d="M1655 707.008L1655 695.008" stroke="white"/>
<path d="M1649 636.008L1661 636.008" stroke="white"/>
<path d="M1655 642.008L1655 630.008" stroke="white"/>
<path d="M1649 571.008L1661 571.008" stroke="white"/>
<path d="M1655 577.008L1655 565.008" stroke="white"/>
</g>
<circle opacity="0.4" cx="815" cy="407" r="63.5" stroke="white"/>
<circle opacity="0.4" cx="1138" cy="521" r="308.5" stroke="white" stroke-dasharray="2 8"/>
<circle opacity="0.4" cx="1524.5" cy="701.507" r="65" stroke="white"/>
<circle cx="1524.5" cy="701.507" r="43" stroke="white" stroke-dasharray="1 6"/>
<circle cx="815.5" cy="407.5" r="43" stroke="white" stroke-dasharray="1 6"/>
<path d="M1591 148H1656V149H1591V148Z" fill="white"/>
<g opacity="0.7">
<path d="M1610.4 125.144H1611.12V133.544H1610.28V126.068L1608.4 126.632L1608.18 125.912L1610.4 125.144Z" fill="white"/>
<path d="M1618.2 132.512C1617.65 133.296 1616.87 133.688 1615.86 133.688C1614.85 133.688 1614.07 133.296 1613.51 132.512C1612.95 131.72 1612.68 130.664 1612.68 129.344C1612.68 128.024 1612.95 126.972 1613.51 126.188C1614.07 125.396 1614.85 125 1615.86 125C1616.87 125 1617.65 125.396 1618.2 126.188C1618.76 126.972 1619.04 128.024 1619.04 129.344C1619.04 130.664 1618.76 131.72 1618.2 132.512ZM1614.13 131.948C1614.55 132.564 1615.12 132.872 1615.86 132.872C1616.59 132.872 1617.17 132.564 1617.57 131.948C1617.99 131.332 1618.2 130.464 1618.2 129.344C1618.2 128.224 1617.99 127.356 1617.57 126.74C1617.17 126.124 1616.59 125.816 1615.86 125.816C1615.12 125.816 1614.55 126.124 1614.13 126.74C1613.72 127.356 1613.52 128.224 1613.52 129.344C1613.52 130.464 1613.72 131.332 1614.13 131.948Z" fill="white"/>
<path d="M1625.76 132.512C1625.2 133.296 1624.42 133.688 1623.42 133.688C1622.41 133.688 1621.62 133.296 1621.06 132.512C1620.51 131.72 1620.24 130.664 1620.24 129.344C1620.24 128.024 1620.51 126.972 1621.06 126.188C1621.62 125.396 1622.41 125 1623.42 125C1624.42 125 1625.2 125.396 1625.76 126.188C1626.32 126.972 1626.6 128.024 1626.6 129.344C1626.6 130.664 1626.32 131.72 1625.76 132.512ZM1621.69 131.948C1622.1 132.564 1622.68 132.872 1623.42 132.872C1624.15 132.872 1624.72 132.564 1625.13 131.948C1625.55 131.332 1625.76 130.464 1625.76 129.344C1625.76 128.224 1625.55 127.356 1625.13 126.74C1624.72 126.124 1624.15 125.816 1623.42 125.816C1622.68 125.816 1622.1 126.124 1621.69 126.74C1621.28 127.356 1621.08 128.224 1621.08 129.344C1621.08 130.464 1621.28 131.332 1621.69 131.948Z" fill="white"/>
<path d="M1638.83 125.144V133.544H1638V126.416L1635.06 131.336H1634.93L1631.99 126.416V133.544H1631.16V125.144H1632.2L1634.99 129.824L1637.79 125.144H1638.83Z" fill="white"/>
</g>
<rect x="1178" y="292" width="5" height="5" fill="white"/>
<rect x="1555" y="419" width="5" height="5" fill="white"/>
<rect x="1392" y="482" width="5" height="5" fill="white"/>
<rect x="910" y="637" width="5" height="5" fill="white"/>
<path opacity="0.7" d="M900.37 627.32C900.517 626.98 900.74 626.71 901.04 626.51C901.334 626.303 901.67 626.2 902.05 626.2C902.59 626.2 903.05 626.39 903.43 626.77C903.81 627.15 904 627.61 904 628.15L904 631.2L897 631.2L897 628.38C897 627.86 897.187 627.417 897.56 627.05C897.927 626.683 898.367 626.5 898.88 626.5C899.534 626.5 900.03 626.773 900.37 627.32ZM897.66 628.38L897.66 630.5L900.1 630.5L900.1 628.38C900.1 628.053 899.984 627.777 899.75 627.55C899.51 627.317 899.22 627.2 898.88 627.2C898.547 627.2 898.26 627.317 898.02 627.55C897.78 627.777 897.66 628.053 897.66 628.38ZM903.34 628.15C903.34 627.803 903.217 627.51 902.97 627.27C902.717 627.023 902.41 626.9 902.05 626.9C901.697 626.9 901.394 627.023 901.14 627.27C900.887 627.51 900.76 627.803 900.76 628.15L900.76 630.5L903.34 630.5L903.34 628.15ZM897 624.199L897 623.599L904 623.599L904 624.299L897.77 624.299L898.24 625.869L897.64 626.049L897 624.199Z" fill="white"/>
<path opacity="0.7" d="M1186.46 289L1185.81 287.28H1182.49L1181.84 289H1181.1L1183.79 282H1184.51L1187.2 289H1186.46ZM1182.74 286.62H1185.56L1184.15 282.87L1182.74 286.62ZM1190.27 284.91C1190.83 284.983 1191.29 285.2 1191.65 285.56C1192.02 285.913 1192.2 286.383 1192.2 286.97C1192.2 287.637 1191.97 288.163 1191.51 288.55C1191.06 288.93 1190.5 289.12 1189.85 289.12C1189.33 289.12 1188.87 289 1188.46 288.76C1188.05 288.52 1187.77 288.177 1187.6 287.73L1188.18 287.39C1188.29 287.737 1188.5 288 1188.79 288.18C1189.08 288.353 1189.44 288.44 1189.85 288.44C1190.33 288.44 1190.72 288.313 1191.03 288.06C1191.34 287.8 1191.5 287.437 1191.5 286.97C1191.5 286.503 1191.34 286.143 1191.03 285.89C1190.72 285.63 1190.33 285.5 1189.85 285.5V285.49L1189.84 285.5H1189.65L1189.35 285.04L1191.09 282.66H1187.8V282H1191.9V282.66L1190.27 284.91Z" fill="white"/>
<path opacity="0.7" d="M1402.46 479L1401.81 477.28H1398.49L1397.84 479H1397.1L1399.79 472H1400.51L1403.2 479H1402.46ZM1398.74 476.62H1401.56L1400.15 472.87L1398.74 476.62ZM1404.7 472H1405.3V479H1404.6V472.77L1403.03 473.24L1402.85 472.64L1404.7 472Z" fill="white"/>
<path opacity="0.7" d="M1250.5 659.04L1248.78 659.69L1248.78 663.01L1250.5 663.66L1250.5 664.4L1243.5 661.71L1243.5 660.99L1250.5 658.3L1250.5 659.04ZM1248.12 662.76L1248.12 659.94L1244.37 661.35L1248.12 662.76ZM1248.44 652.651L1249.1 652.651L1249.1 653.551L1250.5 653.551L1250.5 654.251L1249.1 654.251L1249.1 657.951L1248.44 657.951L1243.5 655.351L1243.5 654.581L1248.44 657.181L1248.44 654.251L1246.3 654.251L1246.3 653.551L1248.44 653.551L1248.44 652.651Z" fill="white"/>
<rect x="1257" y="645" width="5" height="5" fill="white"/>
<rect x="1035" y="213" width="5" height="5" fill="white"/>
<path d="M716 327C721.667 320 740.2 306.6 769 309C805 312 823 290 803 245C787 209 801 148.667 810 123" stroke="white" stroke-dasharray="1 6"/>
</g>
</svg>
