<?xml version="1.0" encoding="UTF-8" standalone="no"?><!-- Generator: Gravit.io --><svg xmlns="http://www.w3.org/2000/svg" xmlns:xlink="http://www.w3.org/1999/xlink" style="isolation:isolate" viewBox="0 0 452.449 752.502" width="452.449pt" height="752.502pt"><defs><clipPath id="_clipPath_98QTWKJzyEPT7YyER5bIX6oOyHMF2TwY"><rect width="452.449" height="752.502"/></clipPath></defs><g clip-path="url(#_clipPath_98QTWKJzyEPT7YyER5bIX6oOyHMF2TwY)"><rect width="452.449" height="752.502" style="fill:rgb(0,0,0)" fill-opacity="0"/><g><g opacity="0.3"><path d=" M 426.07 29.796 C 425.426 30.711 424.516 31.168 423.34 31.168 C 422.164 31.168 421.25 30.711 420.596 29.796 C 419.952 28.872 419.63 27.64 419.63 26.1 C 419.63 24.56 419.952 23.333 420.596 22.418 C 421.25 21.494 422.164 21.032 423.34 21.032 C 424.516 21.032 425.426 21.494 426.07 22.418 C 426.724 23.333 427.05 24.56 427.05 26.1 C 427.05 27.64 426.724 28.872 426.07 29.796 Z  M 421.324 29.138 C 421.81 29.857 422.482 30.216 423.34 30.216 C 424.199 30.216 424.866 29.857 425.342 29.138 C 425.828 28.419 426.07 27.407 426.07 26.1 C 426.07 24.793 425.828 23.781 425.342 23.062 C 424.866 22.343 424.199 21.984 423.34 21.984 C 422.482 21.984 421.81 22.343 421.324 23.062 C 420.848 23.781 420.61 24.793 420.61 26.1 C 420.61 27.407 420.848 28.419 421.324 29.138 Z  M 428.172 31 L 428.172 30.118 L 431.7 26.562 C 432.708 25.554 433.212 24.691 433.212 23.972 C 433.212 23.347 433.016 22.861 432.624 22.516 C 432.241 22.161 431.779 21.984 431.238 21.984 C 430.23 21.984 429.497 22.446 429.04 23.37 L 428.214 22.88 C 428.522 22.273 428.942 21.816 429.474 21.508 C 430.006 21.191 430.594 21.032 431.238 21.032 C 432.022 21.032 432.708 21.298 433.296 21.83 C 433.893 22.353 434.192 23.067 434.192 23.972 C 434.192 24.541 434.033 25.087 433.716 25.61 C 433.399 26.133 432.951 26.683 432.372 27.262 L 429.572 30.048 L 434.402 30.048 L 434.402 31 L 428.172 31 Z " fill="rgb(255,255,255)"/></g><g opacity="0.3"><circle vector-effect="non-scaling-stroke" cx="426.449" cy="26" r="25.5" fill="none" stroke-width="1" stroke="rgb(255,255,255)" stroke-linejoin="miter" stroke-linecap="butt" stroke-miterlimit="4"/></g><g opacity="0.3"><path d=" M 25.656 730.298 C 25.012 731.213 24.102 731.67 22.926 731.67 C 21.75 731.67 20.835 731.213 20.182 730.298 C 19.538 729.374 19.216 728.142 19.216 726.602 C 19.216 725.062 19.538 723.835 20.182 722.92 C 20.835 721.996 21.75 721.534 22.926 721.534 C 24.102 721.534 25.012 721.996 25.656 722.92 C 26.309 723.835 26.636 725.062 26.636 726.602 C 26.636 728.142 26.309 729.374 25.656 730.298 Z  M 20.91 729.64 C 21.395 730.359 22.067 730.718 22.926 730.718 C 23.784 730.718 24.452 730.359 24.928 729.64 C 25.413 728.922 25.656 727.909 25.656 726.602 C 25.656 725.296 25.413 724.283 24.928 723.564 C 24.452 722.846 23.784 722.486 22.926 722.486 C 22.067 722.486 21.395 722.846 20.91 723.564 C 20.434 724.283 20.196 725.296 20.196 726.602 C 20.196 727.909 20.434 728.922 20.91 729.64 Z  M 31.219 725.776 C 32.002 725.879 32.647 726.182 33.15 726.686 C 33.664 727.181 33.921 727.839 33.921 728.66 C 33.921 729.594 33.599 730.331 32.954 730.872 C 32.32 731.404 31.545 731.67 30.63 731.67 C 29.903 731.67 29.254 731.502 28.685 731.166 C 28.115 730.83 27.714 730.35 27.481 729.724 L 28.293 729.248 C 28.451 729.734 28.736 730.102 29.147 730.354 C 29.557 730.597 30.052 730.718 30.63 730.718 C 31.302 730.718 31.853 730.541 32.283 730.186 C 32.721 729.822 32.941 729.314 32.941 728.66 C 32.941 728.007 32.721 727.503 32.283 727.148 C 31.853 726.784 31.302 726.602 30.63 726.602 L 30.63 726.588 L 30.617 726.602 L 30.35 726.602 L 29.93 725.958 L 32.367 722.626 L 27.76 722.626 L 27.76 721.702 L 33.501 721.702 L 33.501 722.626 L 31.219 725.776 Z " fill="rgb(255,255,255)"/></g><g opacity="0.3"><circle vector-effect="non-scaling-stroke" cx="26" cy="726.502" r="25.5" fill="none" stroke-width="1" stroke="rgb(255,255,255)" stroke-linejoin="miter" stroke-linecap="butt" stroke-miterlimit="4"/></g><g opacity="0.5"><mask id="_mask_yyO79c9BYLzvnPVmYvOJOrkdgVCPzOjv" x="-200%" y="-200%" width="400%" height="400%"><rect x="-200%" y="-200%" width="400%" height="400%" style="fill:white;"/><path d=" M 26.309 695.443 C 69.475 440.135 202.319 208.607 400.949 42.5" fill="black" stroke="none"/></mask><path d=" M 26.309 695.443 C 69.475 440.135 202.319 208.607 400.949 42.5" fill="none" mask="url(#_mask_yyO79c9BYLzvnPVmYvOJOrkdgVCPzOjv)" vector-effect="non-scaling-stroke" stroke-width="2" stroke-dasharray="1,4" stroke="rgb(255,255,255)" stroke-linejoin="miter" stroke-linecap="butt" stroke-miterlimit="4"/><path d=" M 26.309 695.443 C 69.475 440.135 202.319 208.607 400.949 42.5" fill="none"/></g></g></g></svg>