<?xml version="1.0" encoding="UTF-8" standalone="no"?><!-- Generator: Gravit.io --><svg xmlns="http://www.w3.org/2000/svg" xmlns:xlink="http://www.w3.org/1999/xlink" style="isolation:isolate" viewBox="0 0 1945.99 1073.702" width="1945.99pt" height="1073.702pt"><defs><clipPath id="_clipPath_GUukN7Q1hbt1DiTsUABQyErpFQiRYr0O"><rect width="1945.99" height="1073.702"/></clipPath></defs><g clip-path="url(#_clipPath_GUukN7Q1hbt1DiTsUABQyErpFQiRYr0O)"><rect width="1945.99" height="1073.702" style="fill:rgb(4,4,4)" fill-opacity="0"/><g><rect x="0" y="0" width="1945.99" height="1073.702" transform="matrix(1,0,0,1,0,0)" fill="none"/><g style="opacity:0.5;"><g opacity="0.5"><mask id="_mask_0roC0cv6KUzjnDyi2pq1MYdNCvxfUCkj" x="-200%" y="-200%" width="400%" height="400%"><rect x="-200%" y="-200%" width="400%" height="400%" style="fill:white;"/><path d=" M 1127.994 511.658 C 1127.994 550.94 1096.102 582.832 1056.82 582.832 C 1017.538 582.832 985.646 550.94 985.646 511.658 C 985.646 472.376 1017.538 440.484 1056.82 440.484 C 1096.102 440.484 1127.994 472.376 1127.994 511.658 Z " fill="black" stroke="none"/></mask><path d=" M 1127.994 511.658 C 1127.994 550.94 1096.102 582.832 1056.82 582.832 C 1017.538 582.832 985.646 550.94 985.646 511.658 C 985.646 472.376 1017.538 440.484 1056.82 440.484 C 1096.102 440.484 1127.994 472.376 1127.994 511.658 Z " fill="none" mask="url(#_mask_0roC0cv6KUzjnDyi2pq1MYdNCvxfUCkj)" vector-effect="non-scaling-stroke" stroke-width="2" stroke-dasharray="1,4" stroke="rgb(255,255,255)" stroke-opacity="100" stroke-linejoin="miter" stroke-linecap="butt" stroke-miterlimit="4"/><path d=" M 1127.994 511.658 C 1127.994 550.94 1096.102 582.832 1056.82 582.832 C 1017.538 582.832 985.646 550.94 985.646 511.658 C 985.646 472.376 1017.538 440.484 1056.82 440.484 C 1096.102 440.484 1127.994 472.376 1127.994 511.658 Z " fill="none"/></g></g><g style="opacity:0.5;"><clipPath id="_clipPath_tLjRq3XuiedUvC33WSO95a7wsYQqvpU2"><path d=" M -3891.98 -2147.404 L 3891.98 -2147.404 L 3891.98 2147.404 L -3891.98 2147.404 L -3891.98 -2147.404 Z  M 1128 511.658 C 1128 521.004 1126.16 530.259 1122.58 538.895 C 1119 547.53 1113.76 555.376 1107.15 561.985 C 1100.54 568.594 1092.69 573.837 1084.06 577.414 C 1075.42 580.99 1066.17 582.831 1056.82 582.831 L 1128 511.658 Z " fill-rule="evenodd" fill="rgb(255,255,255)"/></clipPath><g clip-path="url(#_clipPath_tLjRq3XuiedUvC33WSO95a7wsYQqvpU2)"><g opacity="0.5"><mask id="_mask_f3rQ4oyIU24jfDh0MuDW9uMKVAkYdWrC" x="-200%" y="-200%" width="400%" height="400%"><rect x="-200%" y="-200%" width="400%" height="400%" style="fill:white;"/><path d=" M 1128 511.658 C 1128 521.004 1126.16 530.259 1122.58 538.895 C 1119 547.53 1113.76 555.376 1107.15 561.985 C 1100.54 568.594 1092.69 573.837 1084.06 577.414 C 1075.42 580.99 1066.17 582.831 1056.82 582.831" fill="black" stroke="none"/></mask><path d=" M 1128 511.658 C 1128 521.004 1126.16 530.259 1122.58 538.895 C 1119 547.53 1113.76 555.376 1107.15 561.985 C 1100.54 568.594 1092.69 573.837 1084.06 577.414 C 1075.42 580.99 1066.17 582.831 1056.82 582.831" fill="none" mask="url(#_mask_f3rQ4oyIU24jfDh0MuDW9uMKVAkYdWrC)" vector-effect="non-scaling-stroke" stroke-width="2" stroke="rgb(255,255,255)" stroke-opacity="100" stroke-linejoin="miter" stroke-linecap="butt" stroke-miterlimit="4"/><path d=" M 1128 511.658 C 1128 521.004 1126.16 530.259 1122.58 538.895 C 1119 547.53 1113.76 555.376 1107.15 561.985 C 1100.54 568.594 1092.69 573.837 1084.06 577.414 C 1075.42 580.99 1066.17 582.831 1056.82 582.831" fill="none"/></g></g><g opacity="0.5"><path d=" M 1128 511.658 C 1128 521.004 1126.16 530.259 1122.58 538.895 C 1119 547.53 1113.76 555.376 1107.15 561.985 C 1100.54 568.594 1092.69 573.837 1084.06 577.414 C 1075.42 580.99 1066.17 582.831 1056.82 582.831" fill="none"/></g></g><g style="opacity:0.5;"><g opacity="0.5"><mask id="_mask_kVZBiqbqAkvfB7EdmpphzFOVLCcrj0uk" x="-200%" y="-200%" width="400%" height="400%"><rect x="-200%" y="-200%" width="400%" height="400%" style="fill:white;"/><path d=" M 1127.496 511.658 C 1127.496 590.222 1063.712 654.006 985.148 654.006 C 906.584 654.006 842.8 590.222 842.8 511.658 C 842.8 433.094 906.584 369.31 985.148 369.31 C 1063.712 369.31 1127.496 433.094 1127.496 511.658 Z " fill="black" stroke="none"/></mask><path d=" M 1127.496 511.658 C 1127.496 590.222 1063.712 654.006 985.148 654.006 C 906.584 654.006 842.8 590.222 842.8 511.658 C 842.8 433.094 906.584 369.31 985.148 369.31 C 1063.712 369.31 1127.496 433.094 1127.496 511.658 Z " fill="none" mask="url(#_mask_kVZBiqbqAkvfB7EdmpphzFOVLCcrj0uk)" vector-effect="non-scaling-stroke" stroke-width="4" stroke-dasharray="1,4" stroke="rgb(255,255,255)" stroke-opacity="100" stroke-linejoin="miter" stroke-linecap="butt" stroke-miterlimit="4"/><path d=" M 1127.496 511.658 C 1127.496 590.222 1063.712 654.006 985.148 654.006 C 906.584 654.006 842.8 590.222 842.8 511.658 C 842.8 433.094 906.584 369.31 985.148 369.31 C 1063.712 369.31 1127.496 433.094 1127.496 511.658 Z " fill="none"/></g></g><g style="opacity:0.5;"><clipPath id="_clipPath_RQfgvHJk8v1Te1i8PiDMXMPEuanzJQwX"><path d=" M -3891.98 -2147.404 L 3891.98 -2147.404 L 3891.98 2147.404 L -3891.98 2147.404 L -3891.98 -2147.404 Z  M 985.148 368.81 C 1003.907 368.81 1022.48 372.505 1039.81 379.683 C 1057.14 386.862 1072.89 397.384 1086.16 410.649 C 1099.42 423.914 1109.94 439.661 1117.12 456.992 C 1124.3 474.323 1128 492.899 1128 511.658 L 985.148 368.81 Z " fill-rule="evenodd" fill="rgb(255,255,255)"/></clipPath><g clip-path="url(#_clipPath_RQfgvHJk8v1Te1i8PiDMXMPEuanzJQwX)"><g opacity="0.5"><mask id="_mask_BlFD52PngBy4jMcEfCjoTVSUpcJycY8h" x="-200%" y="-200%" width="400%" height="400%"><rect x="-200%" y="-200%" width="400%" height="400%" style="fill:white;"/><path d=" M 985.148 368.81 C 1003.907 368.81 1022.48 372.505 1039.81 379.683 C 1057.14 386.862 1072.89 397.384 1086.16 410.649 C 1099.42 423.914 1109.94 439.661 1117.12 456.992 C 1124.3 474.323 1128 492.899 1128 511.658" fill="black" stroke="none"/></mask><path d=" M 985.148 368.81 C 1003.907 368.81 1022.48 372.505 1039.81 379.683 C 1057.14 386.862 1072.89 397.384 1086.16 410.649 C 1099.42 423.914 1109.94 439.661 1117.12 456.992 C 1124.3 474.323 1128 492.899 1128 511.658" fill="none" mask="url(#_mask_BlFD52PngBy4jMcEfCjoTVSUpcJycY8h)" vector-effect="non-scaling-stroke" stroke-width="2" stroke="rgb(255,255,255)" stroke-opacity="100" stroke-linejoin="miter" stroke-linecap="butt" stroke-miterlimit="4"/><path d=" M 985.148 368.81 C 1003.907 368.81 1022.48 372.505 1039.81 379.683 C 1057.14 386.862 1072.89 397.384 1086.16 410.649 C 1099.42 423.914 1109.94 439.661 1117.12 456.992 C 1124.3 474.323 1128 492.899 1128 511.658" fill="none"/></g></g><g opacity="0.5"><path d=" M 985.148 368.81 C 1003.907 368.81 1022.48 372.505 1039.81 379.683 C 1057.14 386.862 1072.89 397.384 1086.16 410.649 C 1099.42 423.914 1109.94 439.661 1117.12 456.992 C 1124.3 474.323 1128 492.899 1128 511.658" fill="none"/></g></g><g style="opacity:0.5;"><g opacity="0.5"><mask id="_mask_VGS8osatjfPAxOPPIdZtaKWf2JJ3B7Xy" x="-200%" y="-200%" width="400%" height="400%"><rect x="-200%" y="-200%" width="400%" height="400%" style="fill:white;"/><path d=" M 1199.17 583.332 C 1199.17 701.454 1103.27 797.354 985.148 797.354 C 867.026 797.354 771.126 701.454 771.126 583.332 C 771.126 465.21 867.026 369.31 985.148 369.31 C 1103.27 369.31 1199.17 465.21 1199.17 583.332 Z " fill="black" stroke="none"/></mask><path d=" M 1199.17 583.332 C 1199.17 701.454 1103.27 797.354 985.148 797.354 C 867.026 797.354 771.126 701.454 771.126 583.332 C 771.126 465.21 867.026 369.31 985.148 369.31 C 1103.27 369.31 1199.17 465.21 1199.17 583.332 Z " fill="none" mask="url(#_mask_VGS8osatjfPAxOPPIdZtaKWf2JJ3B7Xy)" vector-effect="non-scaling-stroke" stroke-width="4" stroke-dasharray="1,4" stroke="rgb(255,255,255)" stroke-opacity="100" stroke-linejoin="miter" stroke-linecap="butt" stroke-miterlimit="4"/><path d=" M 1199.17 583.332 C 1199.17 701.454 1103.27 797.354 985.148 797.354 C 867.026 797.354 771.126 701.454 771.126 583.332 C 771.126 465.21 867.026 369.31 985.148 369.31 C 1103.27 369.31 1199.17 465.21 1199.17 583.332 Z " fill="none"/></g></g><g style="opacity:0.5;"><clipPath id="_clipPath_6KDb1T9cMxcbL3qPVPdatWVTkOmwVxPr"><path d=" M -3891.98 -2147.404 L 3891.98 -2147.404 L 3891.98 2147.404 L -3891.98 2147.404 L -3891.98 -2147.404 Z  M 770.626 583.332 C 770.626 555.161 776.175 527.265 786.956 501.238 C 797.737 475.211 813.538 451.562 833.458 431.642 C 853.379 411.722 877.027 395.921 903.054 385.14 C 929.081 374.359 956.977 368.81 985.148 368.81 L 770.626 583.332 Z " fill-rule="evenodd" fill="rgb(255,255,255)"/></clipPath><g clip-path="url(#_clipPath_6KDb1T9cMxcbL3qPVPdatWVTkOmwVxPr)"><g opacity="0.5"><mask id="_mask_vpSl0OnlQg3nPET4TXwKhAhe8Qy0Ji52" x="-200%" y="-200%" width="400%" height="400%"><rect x="-200%" y="-200%" width="400%" height="400%" style="fill:white;"/><path d=" M 770.626 583.332 C 770.626 555.161 776.175 527.265 786.956 501.238 C 797.737 475.211 813.538 451.562 833.458 431.642 C 853.379 411.722 877.027 395.921 903.054 385.14 C 929.081 374.359 956.977 368.81 985.148 368.81" fill="black" stroke="none"/></mask><path d=" M 770.626 583.332 C 770.626 555.161 776.175 527.265 786.956 501.238 C 797.737 475.211 813.538 451.562 833.458 431.642 C 853.379 411.722 877.027 395.921 903.054 385.14 C 929.081 374.359 956.977 368.81 985.148 368.81" fill="none" mask="url(#_mask_vpSl0OnlQg3nPET4TXwKhAhe8Qy0Ji52)" vector-effect="non-scaling-stroke" stroke-width="2" stroke="rgb(255,255,255)" stroke-opacity="100" stroke-linejoin="miter" stroke-linecap="butt" stroke-miterlimit="4"/><path d=" M 770.626 583.332 C 770.626 555.161 776.175 527.265 786.956 501.238 C 797.737 475.211 813.538 451.562 833.458 431.642 C 853.379 411.722 877.027 395.921 903.054 385.14 C 929.081 374.359 956.977 368.81 985.148 368.81" fill="none"/></g></g><g opacity="0.5"><path d=" M 770.626 583.332 C 770.626 555.161 776.175 527.265 786.956 501.238 C 797.737 475.211 813.538 451.562 833.458 431.642 C 853.379 411.722 877.027 395.921 903.054 385.14 C 929.081 374.359 956.977 368.81 985.148 368.81" fill="none"/></g></g><g style="opacity:0.5;"><g opacity="0.5"><mask id="_mask_n5xYb7gWXbzaZPbkRkgV9noykmNzgTWI" x="-200%" y="-200%" width="400%" height="400%"><rect x="-200%" y="-200%" width="400%" height="400%" style="fill:white;"/><path d=" M 1485.87 583.332 C 1485.87 780.57 1325.738 940.702 1128.5 940.702 C 931.262 940.702 771.13 780.57 771.13 583.332 C 771.13 386.094 931.262 225.962 1128.5 225.962 C 1325.738 225.962 1485.87 386.094 1485.87 583.332 Z " fill="black" stroke="none"/></mask><path d=" M 1485.87 583.332 C 1485.87 780.57 1325.738 940.702 1128.5 940.702 C 931.262 940.702 771.13 780.57 771.13 583.332 C 771.13 386.094 931.262 225.962 1128.5 225.962 C 1325.738 225.962 1485.87 386.094 1485.87 583.332 Z " fill="none" mask="url(#_mask_n5xYb7gWXbzaZPbkRkgV9noykmNzgTWI)" vector-effect="non-scaling-stroke" stroke-width="4" stroke-dasharray="1,4" stroke="rgb(255,255,255)" stroke-opacity="100" stroke-linejoin="miter" stroke-linecap="butt" stroke-miterlimit="4"/><path d=" M 1485.87 583.332 C 1485.87 780.57 1325.738 940.702 1128.5 940.702 C 931.262 940.702 771.13 780.57 771.13 583.332 C 771.13 386.094 931.262 225.962 1128.5 225.962 C 1325.738 225.962 1485.87 386.094 1485.87 583.332 Z " fill="none"/></g></g><g style="opacity:0.5;"><clipPath id="_clipPath_OEAjqinvlXRf2E4het9soy30zWhnkXxS"><path d=" M -3891.98 -2147.404 L 3891.98 -2147.404 L 3891.98 2147.404 L -3891.98 2147.404 L -3891.98 -2147.404 Z  M 1128.5 941.202 C 1081.5 941.202 1034.96 931.945 991.546 913.96 C 948.127 895.976 908.676 869.615 875.444 836.384 C 842.213 803.153 815.853 763.701 797.868 720.283 C 779.883 676.864 770.627 630.328 770.627 583.332 L 1128.5 941.202 Z " fill-rule="evenodd" fill="rgb(255,255,255)"/></clipPath><g clip-path="url(#_clipPath_OEAjqinvlXRf2E4het9soy30zWhnkXxS)"><g opacity="0.5"><mask id="_mask_OJICP3jxDkcqO1fpTqe5DvLOky0DiJqc" x="-200%" y="-200%" width="400%" height="400%"><rect x="-200%" y="-200%" width="400%" height="400%" style="fill:white;"/><path d=" M 1128.5 941.202 C 1081.5 941.202 1034.96 931.945 991.546 913.96 C 948.127 895.976 908.676 869.615 875.444 836.384 C 842.213 803.153 815.853 763.701 797.868 720.283 C 779.883 676.864 770.627 630.328 770.627 583.332" fill="black" stroke="none"/></mask><path d=" M 1128.5 941.202 C 1081.5 941.202 1034.96 931.945 991.546 913.96 C 948.127 895.976 908.676 869.615 875.444 836.384 C 842.213 803.153 815.853 763.701 797.868 720.283 C 779.883 676.864 770.627 630.328 770.627 583.332" fill="none" mask="url(#_mask_OJICP3jxDkcqO1fpTqe5DvLOky0DiJqc)" vector-effect="non-scaling-stroke" stroke-width="2" stroke="rgb(255,255,255)" stroke-opacity="100" stroke-linejoin="miter" stroke-linecap="butt" stroke-miterlimit="4"/><path d=" M 1128.5 941.202 C 1081.5 941.202 1034.96 931.945 991.546 913.96 C 948.127 895.976 908.676 869.615 875.444 836.384 C 842.213 803.153 815.853 763.701 797.868 720.283 C 779.883 676.864 770.627 630.328 770.627 583.332" fill="none"/></g></g><g opacity="0.5"><path d=" M 1128.5 941.202 C 1081.5 941.202 1034.96 931.945 991.546 913.96 C 948.127 895.976 908.676 869.615 875.444 836.384 C 842.213 803.153 815.853 763.701 797.868 720.283 C 779.883 676.864 770.627 630.328 770.627 583.332" fill="none"/></g></g><g style="opacity:0.5;"><clipPath id="_clipPath_vqxceTGKwcXyEOrczkPyN6fFBJpd1mgL"><path d=" M -3891.98 -2147.404 L 3891.98 -2147.404 L 3891.98 2147.404 L -3891.98 2147.404 L -3891.98 -2147.404 Z  M 1516.7 4 C 1593.48 80.779 1645.76 178.601 1666.95 285.097 C 1688.13 391.592 1677.26 501.978 1635.71 602.295 C 1594.15 702.611 1523.79 788.353 1433.5 848.678 C 1343.22 909.003 1237.08 941.202 1128.5 941.202 L 1516.7 4 Z " fill-rule="evenodd" fill="rgb(255,255,255)"/></clipPath><g clip-path="url(#_clipPath_vqxceTGKwcXyEOrczkPyN6fFBJpd1mgL)"><g opacity="0.5"><mask id="_mask_516vFjjRPirA3BzFhW1IxRcrgxWB3fhP" x="-200%" y="-200%" width="400%" height="400%"><rect x="-200%" y="-200%" width="400%" height="400%" style="fill:white;"/><path d=" M 1516.7 4 C 1593.48 80.779 1645.76 178.601 1666.95 285.097 C 1688.13 391.592 1677.26 501.978 1635.71 602.295 C 1594.15 702.611 1523.79 788.353 1433.5 848.678 C 1343.22 909.003 1237.08 941.202 1128.5 941.202" fill="black" stroke="none"/></mask><path d=" M 1516.7 4 C 1593.48 80.779 1645.76 178.601 1666.95 285.097 C 1688.13 391.592 1677.26 501.978 1635.71 602.295 C 1594.15 702.611 1523.79 788.353 1433.5 848.678 C 1343.22 909.003 1237.08 941.202 1128.5 941.202" fill="none" mask="url(#_mask_516vFjjRPirA3BzFhW1IxRcrgxWB3fhP)" vector-effect="non-scaling-stroke" stroke-width="2" stroke-dasharray="1,6" stroke="rgb(255,255,255)" stroke-opacity="100" stroke-linejoin="miter" stroke-linecap="butt" stroke-miterlimit="4"/><path d=" M 1516.7 4 C 1593.48 80.779 1645.76 178.601 1666.95 285.097 C 1688.13 391.592 1677.26 501.978 1635.71 602.295 C 1594.15 702.611 1523.79 788.353 1433.5 848.678 C 1343.22 909.003 1237.08 941.202 1128.5 941.202" fill="none"/></g></g><g opacity="0.5"><path d=" M 1516.7 4 C 1593.48 80.779 1645.76 178.601 1666.95 285.097 C 1688.13 391.592 1677.26 501.978 1635.71 602.295 C 1594.15 702.611 1523.79 788.353 1433.5 848.678 C 1343.22 909.003 1237.08 941.202 1128.5 941.202" fill="none"/></g></g><g style="opacity:0.5;"><clipPath id="_clipPath_eTzh5xidZhcSYCWjAH8cGBXXpQfofH6X"><path d=" M -3891.98 -2147.404 L 3891.98 -2147.404 L 3891.98 2147.404 L -3891.98 2147.404 L -3891.98 -2147.404 Z  M 1677.49 392.201 C 1677.49 464.297 1663.29 535.687 1635.7 602.295 C 1608.11 668.902 1567.67 729.424 1516.69 780.403 C 1465.71 831.382 1405.19 871.822 1338.59 899.411 C 1271.98 927.001 1200.59 941.202 1128.49 941.202 L 1677.49 392.201 Z " fill-rule="evenodd" fill="rgb(255,255,255)"/></clipPath><g clip-path="url(#_clipPath_eTzh5xidZhcSYCWjAH8cGBXXpQfofH6X)"><g opacity="0.5"><mask id="_mask_MkXC43C0yelsR0sQlI76HOQdxQ8dMxeZ" x="-200%" y="-200%" width="400%" height="400%"><rect x="-200%" y="-200%" width="400%" height="400%" style="fill:white;"/><path d=" M 1677.49 392.201 C 1677.49 464.297 1663.29 535.687 1635.7 602.295 C 1608.11 668.902 1567.67 729.424 1516.69 780.403 C 1465.71 831.382 1405.19 871.822 1338.59 899.411 C 1271.98 927.001 1200.59 941.202 1128.49 941.202" fill="black" stroke="none"/></mask><linearGradient id="_lgradient_1" x1="0" y1="0.5" x2="0.7050682144322595" y2="-0.2091394876872288"><stop offset="29.838519322663064%" stop-opacity="1" style="stop-color:rgb(255,255,255)"/><stop offset="79.6718887032346%" stop-opacity="0" style="stop-color:rgb(255,255,255)"/></linearGradient><path d=" M 1677.49 392.201 C 1677.49 464.297 1663.29 535.687 1635.7 602.295 C 1608.11 668.902 1567.67 729.424 1516.69 780.403 C 1465.71 831.382 1405.19 871.822 1338.59 899.411 C 1271.98 927.001 1200.59 941.202 1128.49 941.202" fill="none" mask="url(#_mask_MkXC43C0yelsR0sQlI76HOQdxQ8dMxeZ)" vector-effect="non-scaling-stroke" stroke-width="2" stroke="url(#_lgradient_1)" stroke-linejoin="miter" stroke-linecap="butt" stroke-miterlimit="4"/><path d=" M 1677.49 392.201 C 1677.49 464.297 1663.29 535.687 1635.7 602.295 C 1608.11 668.902 1567.67 729.424 1516.69 780.403 C 1465.71 831.382 1405.19 871.822 1338.59 899.411 C 1271.98 927.001 1200.59 941.202 1128.49 941.202" fill="none"/></g></g><g opacity="0.5"><path d=" M 1677.49 392.201 C 1677.49 464.297 1663.29 535.687 1635.7 602.295 C 1608.11 668.902 1567.67 729.424 1516.69 780.403 C 1465.71 831.382 1405.19 871.822 1338.59 899.411 C 1271.98 927.001 1200.59 941.202 1128.49 941.202" fill="none"/></g></g><g style="opacity:0.2;"><clipPath id="_clipPath_zLrhn1q8d7acSKlPPGXsCKdvX3yDYqST"><path d=" M -3891.98 -2147.404 L 3891.98 -2147.404 L 3891.98 2147.404 L -3891.98 2147.404 L -3891.98 -2147.404 Z  M 1094.32 957.431 C 1006.962 952.149 922.015 926.689 846.152 883.05 C 770.288 839.411 705.572 778.782 657.085 705.921 L 1094.32 957.431 Z " fill-rule="evenodd" fill="rgb(255,255,255)"/></clipPath><g clip-path="url(#_clipPath_zLrhn1q8d7acSKlPPGXsCKdvX3yDYqST)"><g opacity="0.2"><mask id="_mask_WCDO8kGT2ZPbtNv5MnllGiiuRD8HTHa8" x="-200%" y="-200%" width="400%" height="400%"><rect x="-200%" y="-200%" width="400%" height="400%" style="fill:white;"/><path d=" M 1094.32 957.431 C 1006.962 952.149 922.015 926.689 846.152 883.05 C 770.288 839.411 705.572 778.782 657.085 705.921" fill="black" stroke="none"/></mask><path d=" M 1094.32 957.431 C 1006.962 952.149 922.015 926.689 846.152 883.05 C 770.288 839.411 705.572 778.782 657.085 705.921" fill="none" mask="url(#_mask_WCDO8kGT2ZPbtNv5MnllGiiuRD8HTHa8)" vector-effect="non-scaling-stroke" stroke-width="2" stroke="rgb(255,255,255)" stroke-opacity="100" stroke-linejoin="miter" stroke-linecap="butt" stroke-miterlimit="4"/><path d=" M 1094.32 957.431 C 1006.962 952.149 922.015 926.689 846.152 883.05 C 770.288 839.411 705.572 778.782 657.085 705.921" fill="none"/></g></g><g opacity="0.2"><path d=" M 1094.32 957.431 C 1006.962 952.149 922.015 926.689 846.152 883.05 C 770.288 839.411 705.572 778.782 657.085 705.921" fill="none"/></g></g><g style="opacity:0.5;"><clipPath id="_clipPath_dz1JJg28OHoiCQOYG3NOGfkgFL9AcdBt"><path d=" M -3891.98 -2147.404 L 3891.98 -2147.404 L 3891.98 2147.404 L -3891.98 2147.404 L -3891.98 -2147.404 Z  M 1128 151.701 L 1128 1073.702 L 1128 151.701 Z " fill-rule="evenodd" fill="rgb(255,255,255)"/></clipPath><g clip-path="url(#_clipPath_dz1JJg28OHoiCQOYG3NOGfkgFL9AcdBt)"><g opacity="0.5"><mask id="_mask_E2OGsa1848mhU1wAglEmApzPXbl2EENx" x="-200%" y="-200%" width="400%" height="400%"><rect x="-200%" y="-200%" width="400%" height="400%" style="fill:white;"/><line x1="1128" y1="151.701" x2="1128" y2="1073.702" fill="black" stroke="none"/></mask><line x1="1128" y1="151.701" x2="1128" y2="1073.702" mask="url(#_mask_E2OGsa1848mhU1wAglEmApzPXbl2EENx)" vector-effect="non-scaling-stroke" stroke-width="2" stroke-dasharray="3,6" stroke="rgb(255,255,255)" stroke-opacity="100" stroke-linejoin="miter" stroke-linecap="butt" stroke-miterlimit="4"/></g></g></g><g style="opacity:0.5;"><clipPath id="_clipPath_S0HEzjcRMLrpz16g6TP8waoqKDOCoVHe"><path d=" M -3891.98 -2147.404 L 3891.98 -2147.404 L 3891.98 2147.404 L -3891.98 2147.404 L -3891.98 -2147.404 Z  M 731.003 583.701 L 1699 583.701 L 731.003 583.701 Z " fill-rule="evenodd" fill="rgb(255,255,255)"/></clipPath><g clip-path="url(#_clipPath_S0HEzjcRMLrpz16g6TP8waoqKDOCoVHe)"><g opacity="0.5"><mask id="_mask_ZC3LvzJERgulD4krhU2DTn8TiUoiOBR7" x="-200%" y="-200%" width="400%" height="400%"><rect x="-200%" y="-200%" width="400%" height="400%" style="fill:white;"/><line x1="731.003" y1="583.701" x2="1699" y2="583.701" fill="black" stroke="none"/></mask><line x1="731.003" y1="583.701" x2="1699" y2="583.701" mask="url(#_mask_ZC3LvzJERgulD4krhU2DTn8TiUoiOBR7)" vector-effect="non-scaling-stroke" stroke-width="2" stroke-dasharray="3,6" stroke="rgb(255,255,255)" stroke-opacity="100" stroke-linejoin="miter" stroke-linecap="butt" stroke-miterlimit="4"/></g></g></g><g style="opacity:0.5;"><clipPath id="_clipPath_F5vH1k82i54LzImptSK5igV0rp3DhH5R"><path d=" M -3891.98 -2147.404 L 3891.98 -2147.404 L 3891.98 2147.404 L -3891.98 2147.404 L -3891.98 -2147.404 Z  M 1113 363.701 L 1143 363.701 L 1113 363.701 Z " fill-rule="evenodd" fill="rgb(255,255,255)"/></clipPath><g clip-path="url(#_clipPath_F5vH1k82i54LzImptSK5igV0rp3DhH5R)"><g opacity="0.5"><mask id="_mask_26OEpZHgFUCAAhdZC7jiGYmuhNdMh4W7" x="-200%" y="-200%" width="400%" height="400%"><rect x="-200%" y="-200%" width="400%" height="400%" style="fill:white;"/><line x1="1113" y1="363.701" x2="1143" y2="363.701" fill="black" stroke="none"/></mask><line x1="1113" y1="363.701" x2="1143" y2="363.701" mask="url(#_mask_26OEpZHgFUCAAhdZC7jiGYmuhNdMh4W7)" vector-effect="non-scaling-stroke" stroke-width="2" stroke="rgb(255,255,255)" stroke-opacity="100" stroke-linejoin="miter" stroke-linecap="butt" stroke-miterlimit="4"/></g></g></g><g style="opacity:0.5;"><clipPath id="_clipPath_AfFxJafQXi9nOsDIinxVyNhRJd1fDdX9"><path d=" M -3891.98 -2147.404 L 3891.98 -2147.404 L 3891.98 2147.404 L -3891.98 2147.404 L -3891.98 -2147.404 Z  M 1128 348.701 L 1128 378.701 L 1128 348.701 Z " fill-rule="evenodd" fill="rgb(255,255,255)"/></clipPath><g clip-path="url(#_clipPath_AfFxJafQXi9nOsDIinxVyNhRJd1fDdX9)"><g opacity="0.5"><mask id="_mask_JItrHUgSE7ytTiAGyhPBdVzYCutJ7Sr5" x="-200%" y="-200%" width="400%" height="400%"><rect x="-200%" y="-200%" width="400%" height="400%" style="fill:white;"/><line x1="1128" y1="348.701" x2="1128" y2="378.701" fill="black" stroke="none"/></mask><line x1="1128" y1="348.701" x2="1128" y2="378.701" mask="url(#_mask_JItrHUgSE7ytTiAGyhPBdVzYCutJ7Sr5)" vector-effect="non-scaling-stroke" stroke-width="2" stroke="rgb(255,255,255)" stroke-opacity="100" stroke-linejoin="miter" stroke-linecap="butt" stroke-miterlimit="4"/></g></g></g><g style="opacity:0.5;"><g opacity="0.5"><path d=" M 835.982 607.627 L 836.635 607.627 L 836.635 612.443 L 835.982 612.443 L 835.982 611.499 C 835.527 612.205 834.86 612.558 833.983 612.558 C 833.276 612.558 832.673 612.314 832.171 611.826 C 831.676 611.338 831.429 610.741 831.429 610.035 C 831.429 609.329 831.676 608.732 832.171 608.244 C 832.673 607.756 833.276 607.512 833.983 607.512 C 834.86 607.512 835.527 607.865 835.982 608.571 L 835.982 607.627 Z  M 832.646 611.393 C 833.022 611.759 833.484 611.942 834.032 611.942 C 834.58 611.942 835.042 611.759 835.418 611.393 C 835.794 611.021 835.982 610.568 835.982 610.035 C 835.982 609.502 835.794 609.053 835.418 608.687 C 835.042 608.314 834.58 608.128 834.032 608.128 C 833.484 608.128 833.022 608.314 832.646 608.687 C 832.27 609.053 832.082 609.502 832.082 610.035 C 832.082 610.568 832.27 611.021 832.646 611.393 Z " fill="rgb(255,255,255)"/></g></g><g style="opacity:0.5;"><g opacity="0.5"><path d=" M 842.077 608.764 L 842.077 609.38 L 840.315 609.38 L 840.315 611.094 L 839.682 611.094 L 839.682 609.38 L 837.92 609.38 L 837.92 608.764 L 839.682 608.764 L 839.682 607.049 L 840.315 607.049 L 840.315 608.764 L 842.077 608.764 Z " fill="rgb(255,255,255)"/></g></g><g style="opacity:0.5;"><g opacity="0.5"><path d=" M 846.018 607.512 C 846.724 607.512 847.324 607.756 847.819 608.244 C 848.321 608.732 848.571 609.329 848.571 610.035 C 848.571 610.741 848.321 611.338 847.819 611.826 C 847.324 612.314 846.724 612.558 846.018 612.558 C 845.14 612.558 844.473 612.205 844.018 611.499 L 844.018 612.443 L 843.365 612.443 L 843.365 605.701 L 844.018 605.701 L 844.018 608.571 C 844.473 607.865 845.14 607.512 846.018 607.512 Z  M 844.582 611.393 C 844.958 611.759 845.42 611.942 845.968 611.942 C 846.516 611.942 846.978 611.759 847.354 611.393 C 847.73 611.021 847.918 610.568 847.918 610.035 C 847.918 609.502 847.73 609.053 847.354 608.687 C 846.978 608.314 846.516 608.128 845.968 608.128 C 845.42 608.128 844.958 608.314 844.582 608.687 C 844.206 609.053 844.018 609.502 844.018 610.035 C 844.018 610.568 844.206 611.021 844.582 611.393 Z " fill="rgb(255,255,255)"/></g></g><g style="opacity:0.5;"><g opacity="0.5"><path d=" M 842.14 624.118 L 842.857 624.118 L 842.857 629.57 L 842.14 629.57 L 842.14 628.502 C 841.64 629.301 840.909 629.701 839.946 629.701 C 839.171 629.701 838.508 629.425 837.958 628.872 C 837.414 628.32 837.143 627.644 837.143 626.844 C 837.143 626.044 837.414 625.368 837.958 624.816 C 838.508 624.263 839.171 623.987 839.946 623.987 C 840.909 623.987 841.64 624.387 842.14 625.186 L 842.14 624.118 Z  M 838.479 628.382 C 838.892 628.796 839.399 629.003 840 629.003 C 840.601 629.003 841.108 628.796 841.521 628.382 C 841.934 627.96 842.14 627.447 842.14 626.844 C 842.14 626.241 841.934 625.732 841.521 625.317 C 841.108 624.896 840.601 624.685 840 624.685 C 839.399 624.685 838.892 624.896 838.479 625.317 C 838.066 625.732 837.86 626.241 837.86 626.844 C 837.86 627.447 838.066 627.96 838.479 628.382 Z " fill="rgb(255,255,255)"/></g></g><g style="opacity:0.5;"><g opacity="0.5"><path d=" M 890.901 607.512 C 891.521 607.512 892.048 607.756 892.482 608.244 C 892.923 608.732 893.143 609.329 893.143 610.035 C 893.143 610.741 892.923 611.338 892.482 611.826 C 892.048 612.314 891.521 612.558 890.901 612.558 C 890.13 612.558 889.545 612.205 889.145 611.499 L 889.145 612.443 L 888.571 612.443 L 888.571 605.701 L 889.145 605.701 L 889.145 608.571 C 889.545 607.865 890.13 607.512 890.901 607.512 Z  M 889.64 611.393 C 889.971 611.759 890.376 611.942 890.857 611.942 C 891.338 611.942 891.744 611.759 892.074 611.393 C 892.404 611.021 892.569 610.568 892.569 610.035 C 892.569 609.502 892.404 609.053 892.074 608.687 C 891.744 608.314 891.338 608.128 890.857 608.128 C 890.376 608.128 889.971 608.314 889.64 608.687 C 889.31 609.053 889.145 609.502 889.145 610.035 C 889.145 610.568 889.31 611.021 889.64 611.393 Z " fill="rgb(255,255,255)"/></g></g><g style="opacity:0.5;"><g opacity="0.5"><path d=" M 892.569 624.118 L 893.143 624.118 L 893.143 629.57 L 892.569 629.57 L 892.569 628.502 C 892.169 629.301 891.584 629.701 890.814 629.701 C 890.194 629.701 889.664 629.425 889.223 628.872 C 888.789 628.32 888.571 627.644 888.571 626.844 C 888.571 626.044 888.789 625.368 889.223 624.816 C 889.664 624.263 890.194 623.987 890.814 623.987 C 891.584 623.987 892.169 624.387 892.569 625.186 L 892.569 624.118 Z  M 889.64 628.382 C 889.971 628.796 890.376 629.003 890.857 629.003 C 891.338 629.003 891.744 628.796 892.074 628.382 C 892.404 627.96 892.569 627.447 892.569 626.844 C 892.569 626.241 892.404 625.732 892.074 625.317 C 891.744 624.896 891.338 624.685 890.857 624.685 C 890.376 624.685 889.971 624.896 889.64 625.317 C 889.31 625.732 889.145 626.241 889.145 626.844 C 889.145 627.447 889.31 627.96 889.64 628.382 Z " fill="rgb(255,255,255)"/></g></g><g style="opacity:0.5;"><g opacity="0.5"><path d=" M 850.857 618.272 L 828 618.272 L 828 617.13 L 850.857 617.13 L 850.857 618.272 Z " fill-rule="evenodd" fill="rgb(255,255,255)"/></g></g><g style="opacity:0.5;"><g opacity="0.5"><path d=" M 870.286 615.987 L 862.286 615.987 L 862.286 614.844 L 870.286 614.844 L 870.286 615.987 Z " fill-rule="evenodd" fill="rgb(255,255,255)"/></g></g><g style="opacity:0.5;"><g opacity="0.5"><path d=" M 870.286 620.558 L 862.286 620.558 L 862.286 619.415 L 870.286 619.415 L 870.286 620.558 Z " fill-rule="evenodd" fill="rgb(255,255,255)"/></g></g><g style="opacity:0.5;"><g opacity="0.5"><path d=" M 913.19 619.567 L 912.145 620.526 L 911.585 619.915 L 912.63 618.957 C 913.44 618.214 914.688 618.233 915.474 619 L 916.195 619.703 C 916.667 620.163 917.416 620.175 917.901 619.729 L 918.947 618.771 L 919.506 619.381 L 918.461 620.34 C 917.652 621.082 916.403 621.063 915.617 620.296 L 914.896 619.593 C 914.425 619.133 913.676 619.121 913.19 619.567 Z " fill-rule="evenodd" fill="rgb(255,255,255)"/></g></g><g style="opacity:0.5;"><g opacity="0.5"><path d=" M 913.4 615.98 L 912.355 616.939 L 911.795 616.329 L 912.84 615.37 C 913.65 614.628 914.898 614.647 915.684 615.414 L 916.405 616.117 C 916.877 616.577 917.626 616.589 918.112 616.143 L 919.157 615.184 L 919.716 615.794 L 918.671 616.753 C 917.862 617.496 916.613 617.476 915.827 616.709 L 915.106 616.006 C 914.635 615.546 913.886 615.535 913.4 615.98 Z " fill-rule="evenodd" fill="rgb(255,255,255)"/></g></g><g style="opacity:0.5;"><g opacity="0.5"><path d=" M 931.483 613.83 L 932.056 613.83 L 932.056 621.342 L 931.387 621.342 L 931.387 614.656 L 929.886 615.161 L 929.714 614.517 L 931.483 613.83 Z " fill="rgb(255,255,255)"/></g></g><g style="opacity:0.5;"><g opacity="0.5"><path d=" M 934.54 620.429 L 933.967 622.844 L 933.393 622.844 L 933.775 620.429 L 934.54 620.429 Z " fill="rgb(255,255,255)"/></g></g><g style="opacity:0.5;"><g opacity="0.5"><path d=" M 937.649 616.513 C 938.306 616.513 938.844 616.745 939.265 617.21 C 939.685 617.668 939.895 618.262 939.895 618.991 C 939.895 619.721 939.685 620.319 939.265 620.784 C 938.844 621.241 938.306 621.47 937.649 621.47 C 936.993 621.47 936.454 621.241 936.034 620.784 C 935.613 620.319 935.403 619.721 935.403 618.991 C 935.403 618.426 935.54 617.926 935.814 617.489 L 938.003 613.83 L 938.758 613.83 L 937.114 616.577 C 937.286 616.534 937.464 616.513 937.649 616.513 Z  M 936.502 620.258 C 936.795 620.58 937.178 620.741 937.649 620.741 C 938.121 620.741 938.5 620.58 938.787 620.258 C 939.08 619.936 939.226 619.514 939.226 618.991 C 939.226 618.469 939.08 618.047 938.787 617.725 C 938.5 617.403 938.121 617.242 937.649 617.242 C 937.178 617.242 936.795 617.403 936.502 617.725 C 936.215 618.047 936.072 618.469 936.072 618.991 C 936.072 619.514 936.215 619.936 936.502 620.258 Z " fill="rgb(255,255,255)"/></g></g><g style="opacity:0.5;"><g opacity="0.5"><path d=" M 941.807 613.83 L 942.381 613.83 L 942.381 621.342 L 941.712 621.342 L 941.712 614.656 L 940.211 615.161 L 940.039 614.517 L 941.807 613.83 Z " fill="rgb(255,255,255)"/></g></g><g style="opacity:0.5;"><g opacity="0.5"><path d=" M 946.891 617.468 C 947.229 617.647 947.497 617.897 947.694 618.219 C 947.898 618.534 948 618.895 948 619.303 C 948 619.982 947.787 620.515 947.36 620.902 C 946.933 621.281 946.401 621.47 945.763 621.47 C 945.126 621.47 944.594 621.281 944.167 620.902 C 943.74 620.515 943.526 619.982 943.526 619.303 C 943.526 618.895 943.625 618.534 943.823 618.219 C 944.027 617.897 944.298 617.647 944.635 617.468 C 944.043 617.089 943.746 616.527 943.746 615.783 C 943.746 615.11 943.944 614.595 944.339 614.238 C 944.74 613.88 945.215 613.701 945.763 613.701 C 946.311 613.701 946.783 613.88 947.178 614.238 C 947.579 614.595 947.78 615.11 947.78 615.783 C 947.78 616.527 947.484 617.089 946.891 617.468 Z  M 946.719 614.763 C 946.464 614.542 946.146 614.431 945.763 614.431 C 945.381 614.431 945.059 614.542 944.798 614.763 C 944.543 614.985 944.415 615.325 944.415 615.783 C 944.415 616.212 944.546 616.545 944.807 616.781 C 945.075 617.017 945.394 617.135 945.763 617.135 C 946.133 617.135 946.448 617.017 946.71 616.781 C 946.977 616.545 947.111 616.212 947.111 615.783 C 947.111 615.325 946.98 614.985 946.719 614.763 Z  M 944.626 620.376 C 944.913 620.619 945.292 620.741 945.763 620.741 C 946.235 620.741 946.614 620.619 946.901 620.376 C 947.188 620.125 947.331 619.768 947.331 619.303 C 947.331 618.838 947.188 618.484 946.901 618.24 C 946.614 617.99 946.235 617.865 945.763 617.865 C 945.292 617.865 944.913 617.99 944.626 618.24 C 944.339 618.484 944.196 618.838 944.196 619.303 C 944.196 619.768 944.339 620.125 944.626 620.376 Z " fill="rgb(255,255,255)"/></g></g><g style="opacity:0.5;"><g opacity="0.5"><path d=" M 902.286 618.272 L 879.429 618.272 L 879.429 617.13 L 902.286 617.13 L 902.286 618.272 Z " fill-rule="evenodd" fill="rgb(255,255,255)"/></g></g><g style="opacity:0.5;"><clipPath id="_clipPath_CwQnBKkFluO0Q0EwljEj10HkPOMQiy4e"><path d=" M -3891.98 -2147.404 L 3891.98 -2147.404 L 3891.98 2147.404 L -3891.98 2147.404 L -3891.98 -2147.404 Z  M 1941.99 314.602 L 1870.35 314.602 C 1845.57 314.602 1827.55 315.757 1812.57 309.315 C 1794.57 301.577 1771.99 287.701 1737.26 311.194 C 1719.58 323.153 1692.85 350.603 1667.73 314.602 C 1646.05 283.52 1621.9 291.172 1605.04 311.194 C 1592.23 326.405 1576.43 350.812 1552.55 329.086 C 1528.67 307.36 1513.57 288.19 1481.96 307.36 C 1450.36 326.53 1443.29 322.763 1418.75 318.436 C 1397.01 314.602 1366.01 314.602 1265.99 314.602 L 1941.99 314.602 Z " fill-rule="evenodd" fill="rgb(255,255,255)"/></clipPath><g clip-path="url(#_clipPath_CwQnBKkFluO0Q0EwljEj10HkPOMQiy4e)"><g opacity="0.5"><mask id="_mask_IjaLKyHcOHrlm0HNTksMXtJnSVHbfrV7" x="-200%" y="-200%" width="400%" height="400%"><rect x="-200%" y="-200%" width="400%" height="400%" style="fill:white;"/><path d=" M 1941.99 314.602 L 1870.35 314.602 C 1845.57 314.602 1827.55 315.757 1812.57 309.315 C 1794.57 301.577 1771.99 287.701 1737.26 311.194 C 1719.58 323.153 1692.85 350.603 1667.73 314.602 C 1646.05 283.52 1621.9 291.172 1605.04 311.194 C 1592.23 326.405 1576.43 350.812 1552.55 329.086 C 1528.67 307.36 1513.57 288.19 1481.96 307.36 C 1450.36 326.53 1443.29 322.763 1418.75 318.436 C 1397.01 314.602 1366.01 314.602 1265.99 314.602" fill="black" stroke="none"/></mask><path d=" M 1941.99 314.602 L 1870.35 314.602 C 1845.57 314.602 1827.55 315.757 1812.57 309.315 C 1794.57 301.577 1771.99 287.701 1737.26 311.194 C 1719.58 323.153 1692.85 350.603 1667.73 314.602 C 1646.05 283.52 1621.9 291.172 1605.04 311.194 C 1592.23 326.405 1576.43 350.812 1552.55 329.086 C 1528.67 307.36 1513.57 288.19 1481.96 307.36 C 1450.36 326.53 1443.29 322.763 1418.75 318.436 C 1397.01 314.602 1366.01 314.602 1265.99 314.602" fill="none" mask="url(#_mask_IjaLKyHcOHrlm0HNTksMXtJnSVHbfrV7)" vector-effect="non-scaling-stroke" stroke-width="2" stroke="rgb(255,255,255)" stroke-opacity="100" stroke-linejoin="miter" stroke-linecap="butt" stroke-miterlimit="4"/><path d=" M 1941.99 314.602 L 1870.35 314.602 C 1845.57 314.602 1827.55 315.757 1812.57 309.315 C 1794.57 301.577 1771.99 287.701 1737.26 311.194 C 1719.58 323.153 1692.85 350.603 1667.73 314.602 C 1646.05 283.52 1621.9 291.172 1605.04 311.194 C 1592.23 326.405 1576.43 350.812 1552.55 329.086 C 1528.67 307.36 1513.57 288.19 1481.96 307.36 C 1450.36 326.53 1443.29 322.763 1418.75 318.436 C 1397.01 314.602 1366.01 314.602 1265.99 314.602" fill="none"/></g></g><g opacity="0.5"><path d=" M 1941.99 314.602 L 1870.35 314.602 C 1845.57 314.602 1827.55 315.757 1812.57 309.315 C 1794.57 301.577 1771.99 287.701 1737.26 311.194 C 1719.58 323.153 1692.85 350.603 1667.73 314.602 C 1646.05 283.52 1621.9 291.172 1605.04 311.194 C 1592.23 326.405 1576.43 350.812 1552.55 329.086 C 1528.67 307.36 1513.57 288.19 1481.96 307.36 C 1450.36 326.53 1443.29 322.763 1418.75 318.436 C 1397.01 314.602 1366.01 314.602 1265.99 314.602" fill="none"/></g></g><g style="opacity:0.5;"><clipPath id="_clipPath_JmM2dAP6Edziiu4rjsAx1YDuNew6Cscd"><path d=" M -3891.98 -2147.404 L 3891.98 -2147.404 L 3891.98 2147.404 L -3891.98 2147.404 L -3891.98 -2147.404 Z  M 422 817.352 L 377.703 817.352 C 362.38 817.352 351.238 817.72 341.972 815.67 C 330.84 813.208 306 780.702 295.406 816.268 C 292.101 827.362 269 871.702 252.411 817.352 C 247.548 801.417 237 702.702 213.648 816.268 C 207.479 846.27 195.954 828.874 181.189 821.961 C 166.423 815.048 157.086 808.948 137.543 815.048 C 118 821.148 113.63 819.949 98.457 818.572 C 85.015 817.352 65.843 817.352 4 817.352 L 422 817.352 Z " fill-rule="evenodd" fill="rgb(255,255,255)"/></clipPath><g clip-path="url(#_clipPath_JmM2dAP6Edziiu4rjsAx1YDuNew6Cscd)"><g opacity="0.5"><mask id="_mask_6U665TbXgdYN1yY95NO6kwoBYEqtMtAF" x="-200%" y="-200%" width="400%" height="400%"><rect x="-200%" y="-200%" width="400%" height="400%" style="fill:white;"/><path d=" M 422 817.352 L 377.703 817.352 C 362.38 817.352 351.238 817.72 341.972 815.67 C 330.84 813.208 306 780.702 295.406 816.268 C 292.101 827.362 269 871.702 252.411 817.352 C 247.548 801.417 237 702.702 213.648 816.268 C 207.479 846.27 195.954 828.874 181.189 821.961 C 166.423 815.048 157.086 808.948 137.543 815.048 C 118 821.148 113.63 819.949 98.457 818.572 C 85.015 817.352 65.843 817.352 4 817.352" fill="black" stroke="none"/></mask><path d=" M 422 817.352 L 377.703 817.352 C 362.38 817.352 351.238 817.72 341.972 815.67 C 330.84 813.208 306 780.702 295.406 816.268 C 292.101 827.362 269 871.702 252.411 817.352 C 247.548 801.417 237 702.702 213.648 816.268 C 207.479 846.27 195.954 828.874 181.189 821.961 C 166.423 815.048 157.086 808.948 137.543 815.048 C 118 821.148 113.63 819.949 98.457 818.572 C 85.015 817.352 65.843 817.352 4 817.352" fill="none" mask="url(#_mask_6U665TbXgdYN1yY95NO6kwoBYEqtMtAF)" vector-effect="non-scaling-stroke" stroke-width="2" stroke-dasharray="1,4" stroke="rgb(255,255,255)" stroke-opacity="100" stroke-linejoin="miter" stroke-linecap="butt" stroke-miterlimit="4"/><path d=" M 422 817.352 L 377.703 817.352 C 362.38 817.352 351.238 817.72 341.972 815.67 C 330.84 813.208 306 780.702 295.406 816.268 C 292.101 827.362 269 871.702 252.411 817.352 C 247.548 801.417 237 702.702 213.648 816.268 C 207.479 846.27 195.954 828.874 181.189 821.961 C 166.423 815.048 157.086 808.948 137.543 815.048 C 118 821.148 113.63 819.949 98.457 818.572 C 85.015 817.352 65.843 817.352 4 817.352" fill="none"/></g></g><g opacity="0.5"><path d=" M 422 817.352 L 377.703 817.352 C 362.38 817.352 351.238 817.72 341.972 815.67 C 330.84 813.208 306 780.702 295.406 816.268 C 292.101 827.362 269 871.702 252.411 817.352 C 247.548 801.417 237 702.702 213.648 816.268 C 207.479 846.27 195.954 828.874 181.189 821.961 C 166.423 815.048 157.086 808.948 137.543 815.048 C 118 821.148 113.63 819.949 98.457 818.572 C 85.015 817.352 65.843 817.352 4 817.352" fill="none"/></g></g><g style="opacity:0.5;"><clipPath id="_clipPath_Vra4v4CuzWhtk3xCosQI8w5irogfSyH7"><path d=" M -3891.98 -2147.404 L 3891.98 -2147.404 L 3891.98 2147.404 L -3891.98 2147.404 L -3891.98 -2147.404 Z  M 1941.9 314.022 L 1870.9 314.022 C 1859.53 313.804 1831.18 315.597 1808.68 324.522 C 1780.56 335.678 1759.12 348.147 1731 314.022 C 1702.89 279.898 1670.55 191.305 1615.37 289.741 C 1560.18 388.178 1546.12 410.49 1498.32 346.834 C 1450.52 283.179 1429.08 289.085 1406.23 297.616 C 1383.39 306.147 1383.03 314.679 1265.99 313.366 L 1941.9 314.022 Z " fill-rule="evenodd" fill="rgb(255,255,255)"/></clipPath><g clip-path="url(#_clipPath_Vra4v4CuzWhtk3xCosQI8w5irogfSyH7)"><g opacity="0.5"><mask id="_mask_XKPIMpupmGIRnsIbYMbP1LjRbY4mLRlv" x="-200%" y="-200%" width="400%" height="400%"><rect x="-200%" y="-200%" width="400%" height="400%" style="fill:white;"/><path d=" M 1941.9 314.022 L 1870.9 314.022 C 1859.53 313.804 1831.18 315.597 1808.68 324.522 C 1780.56 335.678 1759.12 348.147 1731 314.022 C 1702.89 279.898 1670.55 191.305 1615.37 289.741 C 1560.18 388.178 1546.12 410.49 1498.32 346.834 C 1450.52 283.179 1429.08 289.085 1406.23 297.616 C 1383.39 306.147 1383.03 314.679 1265.99 313.366" fill="black" stroke="none"/></mask><path d=" M 1941.9 314.022 L 1870.9 314.022 C 1859.53 313.804 1831.18 315.597 1808.68 324.522 C 1780.56 335.678 1759.12 348.147 1731 314.022 C 1702.89 279.898 1670.55 191.305 1615.37 289.741 C 1560.18 388.178 1546.12 410.49 1498.32 346.834 C 1450.52 283.179 1429.08 289.085 1406.23 297.616 C 1383.39 306.147 1383.03 314.679 1265.99 313.366" fill="none" mask="url(#_mask_XKPIMpupmGIRnsIbYMbP1LjRbY4mLRlv)" vector-effect="non-scaling-stroke" stroke-width="2" stroke-dasharray="1,4" stroke="rgb(255,255,255)" stroke-opacity="100" stroke-linejoin="miter" stroke-linecap="butt" stroke-miterlimit="4"/><path d=" M 1941.9 314.022 L 1870.9 314.022 C 1859.53 313.804 1831.18 315.597 1808.68 324.522 C 1780.56 335.678 1759.12 348.147 1731 314.022 C 1702.89 279.898 1670.55 191.305 1615.37 289.741 C 1560.18 388.178 1546.12 410.49 1498.32 346.834 C 1450.52 283.179 1429.08 289.085 1406.23 297.616 C 1383.39 306.147 1383.03 314.679 1265.99 313.366" fill="none"/></g></g><g opacity="0.5"><path d=" M 1941.9 314.022 L 1870.9 314.022 C 1859.53 313.804 1831.18 315.597 1808.68 324.522 C 1780.56 335.678 1759.12 348.147 1731 314.022 C 1702.89 279.898 1670.55 191.305 1615.37 289.741 C 1560.18 388.178 1546.12 410.49 1498.32 346.834 C 1450.52 283.179 1429.08 289.085 1406.23 297.616 C 1383.39 306.147 1383.03 314.679 1265.99 313.366" fill="none"/></g></g></g></g></svg>