<?xml version="1.0" encoding="UTF-8" standalone="no"?><!-- Generator: Gravit.io --><svg xmlns="http://www.w3.org/2000/svg" xmlns:xlink="http://www.w3.org/1999/xlink" style="isolation:isolate" viewBox="0 0 30 28" width="30pt" height="28pt"><defs><clipPath id="_clipPath_d6ZE1fPchJJlwyto5TKHXOW1X3CfHCCO"><rect width="30" height="28"/></clipPath></defs><g clip-path="url(#_clipPath_d6ZE1fPchJJlwyto5TKHXOW1X3CfHCCO)"><path d=" M 29 11 L 28 11 L 28 5 C 28 4.4 27.6 4 27 4 L 3 4 C 2.5 4 2.1 3.7 2 3.2 L 2 2.8 C 2.1 2.3 2.5 2 3 2 L 26.6 2 C 27.2 2 27.6 1.6 27.6 1 C 27.6 0.4 27.2 0 26.6 0 L 3 0 C 1.3 0 0 1.3 0 3 C 0 3.1 0 3.2 0 3.4 L 0 24 C 0 26.2 1.9 28 4.1 28 L 27 28 C 27.6 28 28 27.6 28 27 L 28 21 L 29 21 C 29.6 21 30 20.6 30 20 L 30 12 C 30 11.4 29.6 11 29 11 Z  M 26 26 L 4.1 26 C 3 26 2 25.1 2 23.9 L 2 5.9 C 2.3 6 2.7 6 3 6 L 26 6 L 26 11 L 19 11 C 16.2 11 14 13.2 14 16 C 14 18.8 16.2 21 19 21 L 26 21 L 26 26 Z  M 28 19 L 19 19 C 17.3 19 16 17.7 16 16 C 16 14.3 17.3 13 19 13 L 28 13 L 28 19 Z " fill="rgb(207,219,236)"/><path d=" M 20 17.5 C 20.828 17.5 21.5 16.828 21.5 16 C 21.5 15.172 20.828 14.5 20 14.5 C 19.172 14.5 18.5 15.172 18.5 16 C 18.5 16.828 19.172 17.5 20 17.5 Z " fill="rgb(207,219,236)"/></g></svg>