<?xml version="1.0" encoding="UTF-8" standalone="no"?><!-- Generator: Gravit.io --><svg xmlns="http://www.w3.org/2000/svg" xmlns:xlink="http://www.w3.org/1999/xlink" style="isolation:isolate" viewBox="0 0 28 31.905" width="28pt" height="31.905pt"><defs><clipPath id="_clipPath_0AlQ37hT8YYEVSBsFxq6hHbynFxoJ31i"><rect width="28" height="31.905"/></clipPath></defs><g clip-path="url(#_clipPath_0AlQ37hT8YYEVSBsFxq6hHbynFxoJ31i)"><path d=" M 27.7 13.205 C 25.8 11.305 23.4 9.905 20.8 9.405 C 18.9 8.905 16.9 8.705 14.9 8.605 L 14.9 3.305 C 14.8 1.405 13.3 0.005 11.4 0.005 C 9.5 -0.095 8 1.405 7.9 3.305 L 7.9 13.305 L 6.3 11.705 C 4.8 10.305 2.5 10.305 1 11.705 C 0.4 12.405 0 13.305 0 14.305 C 0 15.305 0.3 16.205 1 16.905 L 5.7 22.405 C 5.9 23.805 6.4 25.205 7.1 26.405 C 7.6 27.305 8.3 28.205 9.1 28.905 L 9.1 30.805 C 9.1 31.405 9.5 31.805 10.1 31.905 L 24 31.905 C 24.6 31.905 25 31.405 25 30.805 L 25 28.105 C 27 25.805 28 22.805 28 19.705 L 28 13.705 C 28 13.605 27.9 13.405 27.7 13.205 Z  M 26 19.905 C 26.1 22.605 25.1 25.105 23.4 27.205 C 23.2 27.405 23 27.605 23 27.905 L 23 30.005 L 11.1 30.005 L 11.1 28.505 C 11.1 28.205 10.9 27.905 10.7 27.705 C 10 27.105 9.3 26.305 8.9 25.505 C 8.3 24.405 7.9 23.205 7.7 22.005 C 7.7 21.805 7.6 21.605 7.5 21.405 L 2.6 15.605 C 1.9 14.905 1.9 13.905 2.6 13.205 C 3.3 12.505 4.4 12.505 5.1 13.205 L 8.1 16.205 L 8.1 19.305 L 10.1 18.305 L 10.1 3.305 C 10.1 2.505 10.7 2.005 11.5 2.005 C 12.3 2.005 12.9 2.505 13 3.305 L 13 15.105 L 15 15.505 L 15 10.605 C 15.8 10.605 16.7 10.705 17.5 10.805 L 17.5 16.005 L 19.1 16.405 L 19.1 11.005 C 19.5 11.105 19.9 11.205 20.4 11.305 C 20.9 11.405 21.4 11.605 21.9 11.805 L 21.9 17.005 L 23.5 17.405 L 23.5 12.605 C 24.4 13.105 25.3 13.605 26 14.305 L 26 19.905 Z " fill="rgb(207,219,236)"/></g></svg>