<?xml version="1.0" encoding="UTF-8" standalone="no"?><!-- Generator: Gravit.io --><svg xmlns="http://www.w3.org/2000/svg" xmlns:xlink="http://www.w3.org/1999/xlink" style="isolation:isolate" viewBox="0 0 30 31.994" width="30pt" height="31.994pt"><defs><clipPath id="_clipPath_deaVxlwvJCV2IXIMkFfrGDQRfjJ6B0Nl"><rect width="30" height="31.994"/></clipPath></defs><g clip-path="url(#_clipPath_deaVxlwvJCV2IXIMkFfrGDQRfjJ6B0Nl)"><path d=" M 28.3 14.694 C 27.1 12.594 20.4 0.594 20.4 0.594 C 20.1 -0.006 19.5 -0.106 19 0.094 C 18.8 0.194 18.7 0.294 18.6 0.494 L 12.6 11.094 L 9.6 5.794 C 9.3 5.294 8.7 5.094 8.2 5.394 C 8 5.494 7.9 5.594 7.8 5.794 C 7.8 5.794 2.3 15.694 1.4 17.394 C 0.5 18.994 0 20.794 0 22.594 C 0 27.694 2.9 31.994 8.7 31.994 L 19.5 31.994 C 25.3 31.994 30 26.994 30 20.794 C 30 18.594 29.4 16.494 28.3 14.694 Z  M 19.5 29.994 L 8.8 29.994 C 5.1 29.994 2 26.694 2 22.594 C 2 21.094 2.4 19.694 3.2 18.494 C 3.9 17.194 7.3 11.294 8.8 8.394 L 11.8 13.694 C 12 13.994 12.3 14.194 12.7 14.194 C 13.1 14.194 13.4 13.994 13.6 13.694 L 19.5 2.994 C 21.4 6.294 25.6 13.994 26.6 15.594 C 27.6 17.094 28.1 18.894 28 20.794 C 28 25.894 24.2 29.994 19.5 29.994 Z " fill="rgb(207,219,236)"/><path d=" M 22.8 19.694 C 22.2 18.494 18.4 11.894 18.4 11.894 C 18.2 11.494 17.7 11.394 17.3 11.594 C 17.2 11.694 17.1 11.794 17 11.894 L 12.8 19.394 L 11.2 16.894 C 11 16.494 10.5 16.394 10.1 16.694 C 10 16.794 9.9 16.794 9.9 16.894 L 6.4 22.294 C 5.8 23.094 5.5 23.994 5.6 24.994 C 5.6 25.694 5.8 26.394 6.1 26.994 L 8 26.994 C 7.5 26.494 7.2 25.694 7.2 24.994 C 7.2 24.394 7.4 23.794 7.8 23.294 L 10.6 18.894 L 12.3 21.494 C 12.5 21.894 13 21.994 13.4 21.694 C 13.5 21.594 13.6 21.494 13.7 21.294 C 13.8 20.994 14 20.794 14.1 20.494 L 17.8 13.994 L 21.5 20.594 C 22 21.394 22.3 22.394 22.3 23.294 C 22.3 24.694 21.7 26.094 20.6 26.994 L 22.7 26.994 C 23.4 25.894 23.8 24.594 23.8 23.294 C 23.7 21.994 23.4 20.794 22.8 19.694 Z " fill="rgb(207,219,236)"/></g></svg>