<?xml version="1.0" encoding="UTF-8" standalone="no"?><!-- Generator: Gravit.io --><svg xmlns="http://www.w3.org/2000/svg" xmlns:xlink="http://www.w3.org/1999/xlink" style="isolation:isolate" viewBox="0 0 30.222 30.128" width="30.222pt" height="30.128pt"><defs><clipPath id="_clipPath_TCSiaS0qJkTGt1BseSlSFdlwFb6i9eBW"><rect width="30.222" height="30.128"/></clipPath></defs><g clip-path="url(#_clipPath_TCSiaS0qJkTGt1BseSlSFdlwFb6i9eBW)"><path d=" M 30.222 8.5 L 30.222 4.25 C 30.222 1.889 28.333 0 25.972 0 L 10.861 0 C 8.5 0 6.611 1.889 6.611 4.25 L 6.611 25.972 C 6.611 27.294 5.572 28.333 4.25 28.333 C 2.928 28.333 1.889 27.294 1.889 25.972 L 1.889 22.572 L 4.911 22.572 L 4.911 20.683 L 0 20.683 L 0 25.878 C 0 28.239 1.889 30.128 4.25 30.128 L 22.289 30.128 C 24.65 30.128 26.539 28.239 26.539 25.878 L 26.539 10.389 L 24.65 10.389 L 24.65 25.878 C 24.65 27.2 23.611 28.239 22.289 28.239 L 7.744 28.239 C 8.217 27.578 8.5 26.728 8.5 25.878 L 8.5 4.156 C 8.5 2.928 9.539 1.794 10.861 1.794 C 12.183 1.794 13.222 2.928 13.222 4.156 L 13.222 8.406 L 30.222 8.5 Z  M 25.972 1.889 C 27.294 1.889 28.333 2.928 28.333 4.25 L 28.333 6.611 L 15.111 6.611 L 15.111 4.25 C 15.111 3.4 14.828 2.55 14.356 1.889 L 25.972 1.889 Z " fill="rgb(207,219,236)"/></g></svg>